<svg aria-hidden="true" style="position: absolute; width: 0; height: 0; overflow: hidden;" version="1.1" xmlns="http://www.w3.org/2000/svg" xmlns:xlink="http://www.w3.org/1999/xlink">
<defs>
<symbol id="icon-login" viewBox="0 0 32 32">
<path fill="#fff" style="fill: var(--color1, #fff)" d="M2.514 21.117c-0.814 0.309-1.23 1.223-0.843 2.003 1.381 2.78 3.547 5.109 6.246 6.689 3.154 1.846 6.844 2.557 10.458 2.015s6.933-2.305 9.406-4.996 3.95-6.146 4.186-9.793c0.236-3.647-0.783-7.264-2.888-10.251s-5.169-5.163-8.683-6.167-7.265-0.775-10.63 0.649c-2.88 1.218-5.328 3.249-7.057 5.828-0.485 0.723-0.19 1.683 0.577 2.094s1.715 0.115 2.216-0.596c1.376-1.949 3.274-3.486 5.491-4.424 2.703-1.143 5.715-1.327 8.537-0.521s5.282 2.554 6.973 4.953 2.509 5.304 2.319 8.232c-0.19 2.928-1.376 5.703-3.362 7.864s-4.651 3.576-7.553 4.012c-2.902 0.436-5.866-0.135-8.398-1.618-2.077-1.216-3.761-2.985-4.874-5.095-0.406-0.77-1.307-1.185-2.121-0.877z"></path>
<path fill="#fff" style="fill: var(--color1, #fff)" d="M2 14.748c-0.692 0-1.252 0.561-1.252 1.252s0.561 1.252 1.252 1.252v-2.504zM22.885 16.885c0.489-0.489 0.489-1.282 0-1.771l-7.969-7.969c-0.489-0.489-1.282-0.489-1.771 0s-0.489 1.282 0 1.771l7.083 7.083-7.083 7.083c-0.489 0.489-0.489 1.282 0 1.771s1.282 0.489 1.771 0l7.969-7.969zM2 17.252h20v-2.504h-20v2.504z"></path>
</symbol>
<symbol id="icon-phone" viewBox="0 0 34 32">
<path d="M22.101 22.445l2.721-2.721c0.366-0.362 0.83-0.61 1.335-0.713s1.028-0.058 1.508 0.13l3.316 1.324c0.484 0.197 0.9 0.532 1.194 0.965s0.453 0.942 0.458 1.465v6.073c-0.003 0.356-0.078 0.707-0.22 1.033s-0.349 0.62-0.608 0.864c-0.259 0.244-0.564 0.433-0.898 0.556s-0.689 0.177-1.044 0.159c-23.235-1.445-27.923-21.122-28.81-28.652-0.041-0.37-0.004-0.744 0.11-1.098s0.302-0.68 0.55-0.957c0.249-0.277 0.554-0.497 0.894-0.647s0.709-0.227 1.081-0.225h5.866c0.524 0.002 1.035 0.16 1.467 0.454s0.768 0.712 0.962 1.198l1.324 3.316c0.195 0.477 0.244 1.002 0.143 1.507s-0.35 0.97-0.714 1.335l-2.721 2.721c0 0 1.567 10.603 12.085 11.915z"></path>
</symbol>
<symbol id="icon-benifits-item-1" viewBox="0 0 32 32">
<path fill="#fff" style="fill: var(--color1, #fff)" d="M23.25 9.7c-0.9 0.9-1.8 1.8-2.75 2.75 1.1 1.45 1.5 3.1 1.1 4.9-0.35 1.4-1.15 2.55-2.35 3.35-2.35 1.65-5.5 1.3-7.45-0.8-2-2.15-2.1-5.3-0.2-7.55 1.7-2.050 5-3.050 7.95-0.9 0.9-0.9 1.8-1.8 2.7-2.75-1.6-1.35-3.45-2.15-5.65-2.3 0 0.6 0 1.15 0 1.75 0 0.5-0.25 0.8-0.65 0.8s-0.65-0.3-0.65-0.8c0-1.3 0-2.55 0-3.85 0-0.15 0-0.3 0-0.45-1.25 0.050-2.45 0.3-3.6 0.75-4 1.6-6.55 4.5-7.6 8.7 0 0.1-0.050 0.15-0.050 0.25-0.1 0.35-0.4 0.55-0.75 0.5-0.35-0.1-0.55-0.4-0.5-0.8 0.35-1.8 1.050-3.45 2.1-4.9 2.5-3.35 5.75-5.3 9.9-5.7 0.15 0 0.35-0.050 0.55-0.050 0-0.55 0-1.15 0-1.7 0-0.6 0.2-0.9 0.65-0.9 0.4 0 0.65 0.3 0.65 0.85 0 1.3 0 2.55 0 3.85 0 0.15 0 0.3 0 0.45 2.5 0.2 4.7 1.1 6.55 2.7 0.3-0.3 0.55-0.6 0.9-0.95-0.65-0.45-1.25-0.95-1.95-1.35-1.1-0.65-2.25-1.15-3.5-1.4-0.1 0-0.2-0.050-0.25-0.050-0.35-0.1-0.55-0.45-0.45-0.8s0.4-0.55 0.8-0.45c1.6 0.3 3.050 0.9 4.4 1.8 0.65 0.45 1.25 0.9 2 1.45 0.050-0.2 0.2-0.35 0.2-0.5 0-0.7 0-1.35 0-2.050 0-0.25 0.1-0.55 0.3-0.7 0.8-0.85 1.65-1.7 2.5-2.55 0.25-0.25 0.5-0.35 0.8-0.2 0.3 0.1 0.4 0.4 0.4 0.7 0 0.65 0 1.25 0 1.95 0.65 0 1.3 0 1.95 0 0.35 0 0.6 0.1 0.75 0.4 0.1 0.35 0 0.6-0.25 0.8-0.85 0.8-1.65 1.65-2.45 2.45-0.2 0.2-0.5 0.3-0.75 0.3-0.65 0.050-1.35 0-2 0-0.15 0-0.35 0.15-0.55 0.2 1.1 1.25 1.9 2.5 2.5 3.95s0.9 2.9 1 4.5c0.6 0 1.2 0 1.75 0 0.5 0 0.8 0.25 0.8 0.65s-0.3 0.65-0.8 0.65c-1.3 0-2.6 0-3.9 0-0.15 0-0.3 0-0.35 0-0.3 1.1-0.45 2.2-0.85 3.2-1.3 3.35-3.7 5.55-7.15 6.6-0.1 0-0.15 0.050-0.25 0.050-0.4 0.1-0.7-0.1-0.8-0.45s0.1-0.65 0.5-0.8c0.25-0.1 0.5-0.15 0.7-0.25 3.8-1.45 5.95-4.25 6.4-8.25 0-0.050 0-0.050 0-0.15-0.55 0-1.15 0-1.7 0-0.5 0-0.8-0.25-0.8-0.65s0.3-0.65 0.8-0.65c1.3 0 2.55 0 3.85 0 0.15 0 0.3 0 0.45 0-0.2-2.85-1.2-5.35-3.050-7.45-0.3 0.3-0.6 0.6-0.9 0.9 0.050 0.050 0.1 0.15 0.2 0.25 0.95 1.15 1.65 2.45 2.050 3.9 0.2 0.6 0.050 0.95-0.35 1.1-0.4 0.1-0.7-0.15-0.85-0.7-0.5-1.3-1.15-2.5-2.050-3.6zM18.6 12.45c-1.5-1.25-4.1-1.35-5.85 0.45-1.7 1.8-1.7 4.45 0.050 6.2s4.45 1.8 6.2 0.1c1.8-1.7 1.8-4.3 0.5-5.9-0.25 0.25-0.45 0.45-0.7 0.7-0.2 0.15-0.15 0.3-0.050 0.5 0.35 0.7 0.5 1.4 0.3 2.15-0.4 1.75-2.2 2.85-3.9 2.4-1.75-0.45-2.8-2.3-2.3-4 0.55-1.75 2.4-2.8 4.050-2.1 0.7 0.3 1.1 0.1 1.45-0.4 0.15 0 0.2-0.050 0.25-0.1zM17.7 15.15c-0.45 0.45-0.85 0.9-1.25 1.3-0.25 0.25-0.6 0.25-0.85 0s-0.3-0.55-0.1-0.85c0.1-0.1 0.2-0.2 0.3-0.3 0.35-0.35 0.7-0.7 1.050-1.050-0.95-0.4-1.9-0.1-2.4 0.65s-0.4 1.75 0.25 2.4c0.65 0.65 1.6 0.75 2.4 0.25 0.7-0.5 1-1.45 0.6-2.4zM26.6 5.4c0.55 0 1.050 0 1.55 0 0.1 0 0.25 0 0.3-0.050 0.4-0.4 0.85-0.85 1.35-1.35-0.45 0-0.8 0-1.1 0-0.45 0-0.7-0.25-0.7-0.7 0-0.35 0-0.7 0-1.15-0.5 0.5-0.9 0.9-1.3 1.3-0.050 0.050-0.1 0.15-0.1 0.25-0.050 0.6 0 1.1 0 1.7z"></path>
<path fill="#fff" style="fill: var(--color1, #fff)" d="M2.5 16.65c-0.55 0-1.15 0-1.75 0-0.5 0-0.8-0.25-0.8-0.65s0.3-0.6 0.75-0.65c1.45 0 2.85 0 4.3 0 0.2-0.85 0.3-1.65 0.55-2.45 0.2-0.65 0.5-1.3 0.75-1.9 0.2-0.4 0.55-0.55 0.9-0.35s0.45 0.55 0.2 0.95c-0.6 1.2-1 2.45-1.050 3.8 0.55 0 1.050 0 1.6 0 0.6 0 0.9 0.2 0.95 0.65 0 0.45-0.3 0.65-0.95 0.65-1.25 0-2.45 0-3.7 0-0.15 0-0.3 0-0.45 0 0.050 1.050 0.2 2.050 0.55 3 1.5 4.35 4.45 7.1 8.9 8.2 0.15 0.050 0.35 0.1 0.5 0.2 0.25 0.2 0.35 0.45 0.2 0.75s-0.4 0.45-0.75 0.4c-1.55-0.35-3.050-0.9-4.4-1.75-3.6-2.5-5.7-5.9-6.2-10.3 0-0.15-0.050-0.3-0.050-0.45 0 0 0-0.050-0.050-0.1z"></path>
<path fill="#fff" style="fill: var(--color1, #fff)" d="M16.65 29.45c0 0.6 0 1.15 0 1.75 0 0.5-0.25 0.8-0.65 0.8s-0.65-0.3-0.65-0.8c0-1.3 0-2.6 0-3.9 0-0.15 0-0.3 0-0.4-0.65-0.1-1.25-0.2-1.85-0.35-4.050-1.050-6.7-3.55-7.95-7.55-0.050-0.15-0.1-0.25-0.1-0.4 0-0.35 0.15-0.55 0.45-0.65s0.6 0 0.75 0.3c0.050 0.15 0.1 0.3 0.15 0.45 1.1 3.8 4.65 6.7 8.55 6.85 0-0.55 0-1.15 0-1.7 0-0.5 0.25-0.8 0.6-0.8 0.4 0 0.65 0.3 0.65 0.8 0 1.25 0 2.55 0 3.8 0 0.15 0 0.3 0 0.55 0.8-0.15 1.6-0.25 2.35-0.4 1.35-0.3 2.55-0.85 3.7-1.6 0.1-0.050 0.2-0.15 0.3-0.2 0.3-0.1 0.55-0.050 0.75 0.2s0.15 0.55-0.050 0.75c-0.1 0.1-0.25 0.2-0.4 0.3-1.95 1.25-4.1 1.95-6.4 2.15 0 0-0.1 0.050-0.2 0.050z"></path>
<path fill="#fff" style="fill: var(--color1, #fff)" d="M26.9 23.55c-0.65 0-0.9-0.5-0.65-1.050 0.45-0.9 0.9-1.85 1.3-2.8 0.15-0.4 0.25-0.85 0.35-1.25s0.4-0.6 0.75-0.55c0.35 0.1 0.55 0.4 0.5 0.85-0.3 1.6-0.9 3.050-1.8 4.4-0.15 0.2-0.35 0.35-0.45 0.4z"></path>
<path fill="#fff" style="fill: var(--color1, #fff)" d="M10.25 8.15c-0.15-0.15-0.4-0.3-0.5-0.55-0.15-0.3 0.050-0.55 0.3-0.75 0.95-0.6 2-1.1 3.1-1.35 0.35-0.1 0.6 0 0.75 0.3 0.2 0.35 0.050 0.8-0.35 0.95-1.050 0.3-2 0.7-2.9 1.3-0.050 0-0.15 0-0.4 0.1z"></path>
<path fill="#fff" style="fill: var(--color1, #fff)" d="M9.1 9.1c0 0.35-0.3 0.6-0.65 0.6s-0.6-0.3-0.6-0.65c0-0.35 0.3-0.6 0.65-0.6 0.3 0 0.6 0.3 0.6 0.65z"></path>
<path fill="#fff" style="fill: var(--color1, #fff)" d="M25.8 24.9c0 0.35-0.3 0.65-0.65 0.65s-0.65-0.25-0.65-0.6c0-0.35 0.25-0.65 0.6-0.65 0.4 0 0.7 0.25 0.7 0.6z"></path>
</symbol>
<symbol id="icon-benifits-item-2" viewBox="0 0 32 32">
<path fill="#fff" style="fill: var(--color1, #fff)" d="M2.133 27.067h14.4v1.6c0 0.883 0.717 1.6 1.6 1.6h2.133c0.467 0 0.908-0.208 1.208-0.558 0.008 0 0.017 0 0.025-0.008 0.392 0.367 0.9 0.567 1.433 0.567h6.4c0.883 0 1.6-0.717 1.6-1.6 0-0.275-0.075-0.55-0.217-0.783 0.725-0.45 0.967-1.392 0.533-2.133 0.4-0.25 0.667-0.667 0.733-1.133s-0.083-0.942-0.4-1.283c0.425-0.467 0.533-1.142 0.275-1.717s-0.833-0.95-1.467-0.95h-1.6v-16.533c0-1.175-0.958-2.133-2.133-2.133h-24.525c-1.175 0-2.133 0.958-2.133 2.133v20.8c0 1.175 0.958 2.133 2.133 2.133zM20.267 29.2h-2.133c-0.292 0-0.533-0.242-0.533-0.533v-4.8c0-0.292 0.242-0.533 0.533-0.533h2.133c0.292 0 0.533 0.242 0.533 0.533v4.8c0 0.292-0.242 0.533-0.533 0.533zM30.933 22.267c0 0.292-0.242 0.533-0.533 0.533h-1.6c-0.292 0-0.533 0.242-0.533 0.533s0.242 0.533 0.533 0.533h1.6c0.292 0 0.533 0.242 0.533 0.533s-0.242 0.533-0.533 0.533h-1.6c-0.292 0-0.533 0.242-0.533 0.533s0.242 0.533 0.533 0.533h1.067c0.292 0 0.533 0.242 0.533 0.533s-0.242 0.533-0.533 0.533h-1.067c-0.292 0-0.533 0.242-0.533 0.533s0.242 0.533 0.533 0.533h0.533c0.292 0 0.533 0.242 0.533 0.533s-0.242 0.533-0.533 0.533h-6.4c-0.592 0-1.067-0.475-1.067-1.067v-4.492c0.667-0.417 1.167-1.058 1.417-1.8 0.475-1.425 0.717-2.917 0.717-4.417 0-0.075 0.050-0.133 0.117-0.158 0.183-0.033 0.658-0.117 1.108 0.767 0.25 0.508 0.375 1.067 0.367 1.642v1.525c0 0.292 0.242 0.533 0.533 0.533h4.267c0.3 0 0.542 0.242 0.542 0.533zM26.667 20.667v-0.992c0.008-0.733-0.158-1.467-0.483-2.125-0.525-1.025-1.325-1.5-2.25-1.333-0.583 0.108-1 0.617-1 1.208 0 1.383-0.225 2.767-0.658 4.083-0.167 0.492-0.492 0.908-0.925 1.2-0.292-0.275-0.683-0.425-1.083-0.433h-2.133c-0.883 0-1.6 0.717-1.6 1.6v2.133h-14.4c-0.592 0-1.067-0.475-1.067-1.067v-17.608h26.667v13.333h-1.067zM2.133 3.067h24.533c0.592 0 1.067 0.475 1.067 1.067v2.133h-26.667v-2.133c0-0.592 0.475-1.067 1.067-1.067z"></path>
<path fill="#fff" style="fill: var(--color1, #fff)" d="M3.199 4.666c0 0.292-0.242 0.533-0.533 0.533s-0.533-0.242-0.533-0.533c0-0.292 0.242-0.533 0.533-0.533s0.533 0.242 0.533 0.533z"></path>
<path fill="#fff" style="fill: var(--color1, #fff)" d="M5.334 4.666c0 0.292-0.242 0.533-0.533 0.533s-0.533-0.242-0.533-0.533c0-0.292 0.242-0.533 0.533-0.533s0.533 0.242 0.533 0.533z"></path>
<path fill="#fff" style="fill: var(--color1, #fff)" d="M7.466 4.666c0 0.292-0.242 0.533-0.533 0.533s-0.533-0.242-0.533-0.533c0-0.292 0.242-0.533 0.533-0.533s0.533 0.242 0.533 0.533z"></path>
<path fill="#fff" style="fill: var(--color1, #fff)" d="M4.267 18.534h8.533c0.883 0 1.6-0.717 1.6-1.6v-6.4c0-0.883-0.717-1.6-1.6-1.6h-8.533c-0.883 0-1.6 0.717-1.6 1.6v6.4c0 0.883 0.717 1.6 1.6 1.6zM5.575 17.467l2.467-3.883 1.183 1.483-1.517 2.4h-2.133zM12.8 17.467h-3.825l2.808-4.417 1.55 1.942v1.95c0 0.283-0.242 0.525-0.533 0.525zM3.733 10.534c0-0.292 0.242-0.533 0.533-0.533h8.533c0.292 0 0.533 0.242 0.533 0.533v2.75l-1.183-1.483c-0.108-0.133-0.275-0.208-0.442-0.2-0.175 0.008-0.325 0.1-0.425 0.25l-1.442 2.267-1.425-1.783c-0.108-0.133-0.275-0.208-0.442-0.2-0.175 0.008-0.325 0.1-0.425 0.25l-3.233 5.083h-0.050c-0.292 0-0.533-0.242-0.533-0.533v-6.4z"></path>
<path fill="#fff" style="fill: var(--color1, #fff)" d="M5.866 11.6c0 0.292-0.242 0.533-0.533 0.533s-0.533-0.242-0.533-0.533c0-0.292 0.242-0.533 0.533-0.533s0.533 0.242 0.533 0.533z"></path>
<path fill="#fff" style="fill: var(--color1, #fff)" d="M25.6 9.466h-9.067c-0.292 0-0.533 0.242-0.533 0.533s0.242 0.533 0.533 0.533h9.067c0.292 0 0.533-0.242 0.533-0.533s-0.242-0.533-0.533-0.533z"></path>
<path fill="#fff" style="fill: var(--color1, #fff)" d="M25.6 11.6h-9.067c-0.292 0-0.533 0.242-0.533 0.533s0.242 0.533 0.533 0.533h9.067c0.292 0 0.533-0.242 0.533-0.533s-0.242-0.533-0.533-0.533z"></path>
<path fill="#fff" style="fill: var(--color1, #fff)" d="M25.6 13.733h-9.067c-0.292 0-0.533 0.242-0.533 0.533s0.242 0.533 0.533 0.533h9.067c0.292 0 0.533-0.242 0.533-0.533s-0.242-0.533-0.533-0.533z"></path>
<path fill="#fff" style="fill: var(--color1, #fff)" d="M21.333 15.867h-4.8c-0.292 0-0.533 0.242-0.533 0.533s0.242 0.533 0.533 0.533h4.8c0.292 0 0.533-0.242 0.533-0.533s-0.242-0.533-0.533-0.533z"></path>
<path fill="#fff" style="fill: var(--color1, #fff)" d="M15.467 20.667h-12.267c-0.292 0-0.533 0.242-0.533 0.533s0.242 0.533 0.533 0.533h12.267c0.292 0 0.533-0.242 0.533-0.533s-0.242-0.533-0.533-0.533z"></path>
<path fill="#fff" style="fill: var(--color1, #fff)" d="M13.867 22.799h-10.667c-0.292 0-0.533 0.242-0.533 0.533s0.242 0.533 0.533 0.533h10.667c0.292 0 0.533-0.242 0.533-0.533s-0.242-0.533-0.533-0.533z"></path>
</symbol>
<symbol id="icon-benifits-item-3" viewBox="0 0 29 32">
<path fill="#fff" style="fill: var(--color1, #fff)" d="M6.896 31.436c-0.58-0.258-0.838-0.644-0.773-1.289 0-0.322 0-0.709 0-1.031-0.129 0-0.258 0-0.387 0-1.547 0-3.029 0-4.576 0-0.773 0-1.16-0.387-1.16-1.16 0-0.322 0-0.645 0-0.967s0.193-0.516 0.451-0.516 0.451 0.193 0.451 0.516c0 0.322 0 0.645 0 0.967 0 0.129 0.064 0.193 0.193 0.193 1.676 0 3.287 0 5.027 0 0-1.031 0-1.998 0-2.965-1.225-0.773-1.611-1.289-1.805-2.707-0.773 0-1.547-0.064-2.256 0-0.644 0.064-1.096 0.773-1.16 1.482 0 0.322 0 0.58 0 0.902s-0.193 0.516-0.451 0.516-0.451-0.193-0.451-0.516c0-0.322 0-0.709 0-1.031 0.064-0.773 0.451-1.418 1.096-1.869 0.064-0.064 0.129-0.064 0.193-0.129-0.258-0.838-0.58-1.611-0.773-2.385-1.031-4.125-0.387-7.927 1.998-11.472 0.129-0.193 0.193-0.322 0.064-0.58-0.322-0.645-0.193-1.418 0.322-1.934s1.225-0.709 1.933-0.387c0.129 0.129 0.258 0.064 0.387-0.064 0.773-0.516 1.482-1.031 2.256-1.547 0.322-0.193 0.58-0.129 0.709 0.129s0 0.451-0.258 0.645c-0.709 0.516-1.418 0.967-2.127 1.482-0.129 0.064-0.129 0.193-0.064 0.322 0.258 0.644 0.129 1.289-0.322 1.74-0.451 0.516-1.031 0.709-1.74 0.516-0.193-0.064-0.258 0-0.387 0.129-1.289 1.869-2.062 3.931-2.256 6.252-0.258 2.32 0.129 4.511 1.031 6.638 0.064 0.193 0.193 0.258 0.451 0.258 0.902 0 1.805 0 2.642 0 0.064-0.258 0-0.387-0.129-0.516-0.773-0.645-1.289-1.418-1.418-2.385 0-0.193-0.064-0.258-0.258-0.322-1.16-0.322-1.547-1.74-0.709-2.642 0.064-0.064 0.129-0.258 0.129-0.387 0-0.967 0-1.869 0-2.836 0-1.418 0.902-2.449 2.191-2.707 0.193-0.064 0.451-0.064 0.644-0.064 0.967 0 1.933 0 2.9 0 0.645 0 1.289 0.193 1.805 0.645 0.064 0.064 0.193 0.064 0.258 0.064 0.58-0.258 1.16-0.322 1.805-0.322 0.322 0 0.58 0 0.902 0 0.258 0 0.451 0.193 0.516 0.451 0 0.258-0.193 0.451-0.516 0.451-0.451 0-0.902 0-1.353 0-1.16 0-2.127 0.902-2.191 2.062-0.064 0.967 0 1.933 0 2.9 0 0.064 0 0.064 0 0.129 0.258 0.064 0.258-0.064 0.322-0.258 0.129-0.709 0.387-1.353 0.773-1.933 0.258-0.322 0.387-0.387 0.773-0.258 1.225 0.387 2.385 0.709 3.674 0.838 0.322 0 0.709 0 1.031-0.064 0.193-0.064 0.451-0.193 0.58-0.322 0.258-0.258 0.58-0.258 0.773 0.064 0.322 0.516 0.58 1.096 0.644 1.676 0 0.129 0.064 0.322 0.258 0.258 0-0.064 0-0.129 0-0.193 0-0.644 0-1.289 0-1.933 0-0.322-0.064-0.516-0.451-0.516-0.258-0.064-0.387-0.258-0.387-0.516 0-0.516-0.193-0.902-0.516-1.289-0.387-0.451-0.902-0.644-1.418-0.644-0.193 0-0.387 0-0.516 0-0.258 0-0.451-0.193-0.451-0.451s0.193-0.451 0.451-0.451c0.709-0.064 1.418 0.064 1.998 0.387 0.645-0.644 1.418-0.838 2.256-0.773 0.967 0 1.869 0 2.836 0 1.225 0 2.191 0.773 2.514 1.933 0 0.064 0.064 0.193 0.193 0.258 0.387 0.258 0.58 0.645 0.58 1.096 0 0.709 0 1.482 0 2.191 0 0.129 0.064 0.322 0.193 0.387 0.838 0.902 0.451 2.256-0.709 2.642-0.193 0.064-0.193 0.129-0.258 0.258-0.193 0.967-0.644 1.805-1.418 2.449-0.129 0.064-0.129 0.258-0.258 0.387l0.064 0.064c0.451 0 0.838 0 1.289 0s0.967 0 1.418 0c0.258 0 0.322-0.064 0.451-0.258 0.902-2.127 1.225-4.318 1.031-6.574s-0.967-4.318-2.191-6.187c-0.129-0.193-0.258-0.258-0.451-0.193-0.644 0.193-1.225 0-1.676-0.516s-0.58-1.096-0.322-1.74c-0.064 0-0.129-0.129-0.258-0.258-1.869-1.482-3.996-2.449-6.38-2.836-0.258-0.064-0.387 0-0.516 0.258-0.645 1.16-2.32 1.096-2.965 0-0.129-0.193-0.258-0.258-0.451-0.193-0.773 0.193-1.547 0.387-2.32 0.58-0.129 0.064-0.387 0.064-0.516 0s-0.258-0.258-0.193-0.387c0.064-0.129 0.193-0.387 0.322-0.387 0.773-0.258 1.482-0.387 2.256-0.58 0.064 0 0.064 0 0.129 0 0.387 0 0.58-0.129 0.709-0.516 0.322-0.773 0.902-1.096 1.676-1.096 0.709 0.064 1.289 0.387 1.547 1.096 0.129 0.258 0.258 0.322 0.516 0.387 2.578 0.387 4.834 1.353 6.832 3.029 0.193 0.129 0.322 0.193 0.58 0.064 0.644-0.258 1.418-0.064 1.869 0.451s0.58 1.289 0.258 1.933c-0.064 0.129-0.129 0.258 0 0.451 2.9 4.318 3.287 8.894 1.353 13.728 0 0.064-0.064 0.129-0.064 0.193 0.129 0.064 0.193 0.129 0.322 0.258 0.645 0.516 0.967 1.16 0.967 1.998 0 1.289 0 2.642 0 3.931 0 0.773-0.387 1.16-1.16 1.16-1.547 0-3.029 0-4.576 0-0.129 0-0.258 0-0.387 0 0 0.387 0 0.709 0 1.031 0.064 0.645-0.193 1.031-0.773 1.289-4.963-0.064-9.796-0.064-14.694-0.064zM17.466 24.088c-0.193 2.062-1.74 3.158-3.222 3.158-0.773 0-1.418-0.193-1.998-0.709-0.838-0.644-1.225-1.482-1.289-2.513-0.709 0-1.353 0-2.062 0-1.16 0-1.869 0.709-1.869 1.869 0 1.418 0 2.836 0 4.254 0 0.258 0.064 0.387 0.387 0.387 2.642 0 5.285 0 7.927 0 1.933 0 3.867 0 5.8 0 0.129 0 0.322 0.064 0.322-0.193 0-1.547 0-3.029 0-4.576 0-0.838-0.709-1.611-1.482-1.611-0.902-0.129-1.676-0.064-2.514-0.064zM17.272 15.259c-2.062 0.709-3.867-0.064-5.736-0.516-0.064 0.064-0.129 0.129-0.129 0.258-0.322 0.451-0.451 0.967-0.451 1.482 0 1.096-0.064 2.191 0.064 3.222 0.193 1.676 1.74 2.9 3.416 2.771s3.029-1.482 3.029-3.158c0-0.967 0-1.933 0-2.9 0-0.387-0.129-0.773-0.193-1.16zM4.705 14.292c-0.064 0.387-0.193 0.709-0.258 1.031-0.064 0.967-0.064 1.998 0 2.965 0.129 1.74 1.676 2.9 3.351 2.642 0.838-0.129 1.547-0.644 1.998-1.353-0.064 0-0.129-0.064-0.129-0.064-1.096-0.451-1.482-1.482-0.902-2.514 0-0.064 0.064-0.064 0.064-0.129 0-0.644 0-1.225 0-1.869-1.418 0-2.707-0.322-4.125-0.709zM27.455 28.213c0-1.482 0-2.9 0-4.318 0-0.644-0.516-1.289-1.16-1.353-0.773-0.064-1.482 0-2.256 0-0.193 1.418-0.58 1.998-1.805 2.707 0 1.031 0 1.998 0 2.965 1.805 0 3.48 0 5.22 0zM18.626 19.512c0 0.064 0.064 0.129 0.064 0.129 0.645 0.967 1.934 1.482 3.029 1.225 1.225-0.322 2.127-1.289 2.191-2.514 0.064-0.902 0.064-1.869 0-2.771 0-0.322-0.129-0.709-0.129-1.031-1.482 0.709-2.836 0.258-4.254 0 0 0.645 0 1.289 0 1.934 0 0.193 0.064 0.322 0.129 0.451 0.451 0.902 0.129 1.998-0.838 2.385-0.064 0.129-0.129 0.193-0.193 0.193zM18.046 11.134c0.193 0.451 0.387 0.902 0.58 1.353 0.064 0.193 0.129 0.258 0.258 0.387 0.193 0.193 0.387 0.387 0.58 0.645 0.064 0.064 0.193 0.193 0.258 0.258 0.451 0.129 0.838 0.258 1.289 0.258 0.644 0.064 1.225 0.064 1.869 0 0.193 0 0.322-0.258 0.451-0.387s0.258-0.322 0.387-0.322c0.129 0 0.322 0.129 0.451 0.258 0.193 0.258 0.322 0.516 0.451 0.838 0-0.516 0-0.967 0-1.353 0-0.064-0.129-0.193-0.193-0.258-0.322-0.064-0.451-0.258-0.451-0.58-0.064-0.838-0.709-1.482-1.547-1.482-1.096 0-2.191 0-3.287 0-0.451-0.064-0.838 0.129-1.096 0.387zM3.738 14.292c0.129-0.193 0.258-0.387 0.322-0.58 0.258-0.387 0.387-0.451 0.838-0.322 0.644 0.193 1.289 0.322 1.933 0.516 0.644 0.129 1.353 0.258 2.062 0.129-0.064-1.096 0.064-2.127 0.838-2.9-0.322-0.258-0.644-0.387-1.031-0.387-1.096 0-2.127 0-3.222 0-0.967 0-1.676 0.644-1.74 1.611-0.064 0.58 0 1.289 0 1.934zM15.532 23.186c-1.031 0.258-1.353 0.322-2.707 0 0.193 0.773-0.258 0.967-0.902 0.838 0.064 1.289 1.096 2.32 2.385 2.32 1.289-0.064 2.32-1.096 2.256-2.256-0.258-0.064-0.58-0.064-0.709-0.193-0.258-0.129-0.258-0.451-0.322-0.709zM6.445 24.346c0.322-0.322 0.644-0.58 0.967-0.838 0.516-0.322 1.031-0.387 1.676-0.387 0.129 0 0.258-0.064 0.258-0.129 0.064-0.129 0.064-0.322 0.129-0.58-0.58 0.064-0.967-0.064-0.902-0.773-0.838 0.258-1.611 0.258-2.385 0.064-0.064 0.258-0.129 0.516-0.258 0.645s-0.451 0.129-0.644 0.193c-0.064 0.709 0.451 1.482 1.16 1.805zM19.85 21.704c-0.129 0.645-0.129 0.645-0.838 0.773-0.064 0.58 0 0.644 0.58 0.644 0.709 0 1.353 0.193 1.869 0.709 0.193 0.129 0.322 0.322 0.516 0.516 0.773-0.322 1.353-1.225 1.225-1.869-0.709-0.064-0.773 0-0.838-0.773-0.902 0.258-1.676 0.193-2.513 0zM4.125 7.525c0.451 0 0.838-0.387 0.838-0.838s-0.387-0.838-0.773-0.838c-0.451 0-0.838 0.322-0.838 0.773-0.064 0.516 0.322 0.902 0.773 0.902zM14.179 3.014c0.451 0 0.838-0.387 0.838-0.838s-0.387-0.773-0.838-0.838c-0.451 0-0.838 0.387-0.838 0.838 0.064 0.516 0.387 0.838 0.838 0.838zM24.297 7.525c0.451 0 0.838-0.387 0.838-0.838s-0.322-0.773-0.773-0.838c-0.451 0-0.838 0.322-0.838 0.773-0.064 0.516 0.322 0.902 0.773 0.902zM11.859 23.122c0.064-0.387-0.064-0.644-0.322-0.644-0.387-0.064-0.773 0-1.225 0 0 0.258-0.064 0.451-0.064 0.644 0.58 0 1.096 0 1.611 0zM18.046 22.477c-0.322 0-0.644 0-0.967 0-0.451 0-0.644 0.193-0.516 0.644 0.516 0 1.031 0 1.611 0-0.064-0.258-0.064-0.451-0.129-0.644zM18.948 21.51c0-0.58-0.58-0.644-0.773-1.031-0.193 0.387-0.322 0.645-0.516 1.031 0.451 0 0.838 0 1.289 0zM10.699 21.51c-0.193-0.322-0.322-0.644-0.516-0.967-0.193 0.193-0.322 0.322-0.516 0.451s-0.387 0.258-0.258 0.516c0.516 0 0.902 0 1.289 0zM9.99 18.61c0-0.516 0-0.967 0-1.482-0.387 0.064-0.58 0.322-0.58 0.644 0 0.387 0.193 0.709 0.58 0.838zM18.368 17.128c0 0.516 0 0.967 0 1.482 0.387-0.064 0.58-0.387 0.58-0.709 0.064-0.387-0.193-0.645-0.58-0.773zM3.545 16.226c-0.322 0.129-0.451 0.387-0.451 0.644s0.129 0.451 0.451 0.58c0-0.387 0-0.773 0-1.225zM24.877 17.45c0.322-0.129 0.451-0.322 0.451-0.645 0-0.258-0.129-0.451-0.451-0.58 0 0.451 0 0.838 0 1.225z"></path>
</symbol>
<symbol id="icon-benifits-item-4" viewBox="0 0 32 32">
<path fill="#fff" style="fill: var(--color1, #fff)" d="M15.642 31.954c-0.593-0.137-1.141-0.32-1.506-0.822-0.228-0.32-0.411-0.73-0.593-1.096-0.091-0.183-0.137-0.274-0.32-0.32-1.187-0.228-2.374-0.639-3.469-1.187-1.735-0.867-3.241-2.054-4.474-3.561-0.137-0.183-0.274-0.183-0.457-0.137-1.141 0.411-2.374-0.091-2.967-1.141-0.593-1.096-0.365-2.419 0.639-3.15 0.183-0.137 0.228-0.274 0.137-0.502-0.822-2.693-0.822-5.432 0-8.126 0.046-0.183 0.046-0.32-0.137-0.456-1.004-0.73-1.278-2.054-0.685-3.15s1.826-1.552 3.013-1.141c0.228 0.091 0.32 0 0.457-0.137 1.233-1.506 2.739-2.693 4.474-3.561 1.050-0.548 2.191-0.913 3.332-1.141 0.274-0.046 0.457-0.137 0.548-0.502 0.183-1.096 1.233-1.826 2.374-1.826s2.145 0.822 2.374 1.917c0.046 0.274 0.183 0.365 0.411 0.411 1.872 0.365 3.561 1.096 5.113 2.191 1.050 0.73 1.963 1.552 2.739 2.511 0.137 0.183 0.274 0.228 0.502 0.137 1.096-0.411 2.374 0.091 2.967 1.096 0.593 1.096 0.365 2.419-0.593 3.15-0.183 0.137-0.228 0.274-0.183 0.502 0.822 2.693 0.822 5.432 0 8.126-0.046 0.183-0.046 0.32 0.137 0.457 0.913 0.685 1.233 1.963 0.776 3.013-0.502 1.096-1.689 1.735-2.785 1.415-0.502-0.137-0.73 0-1.050 0.365-2.009 2.282-4.565 3.743-7.532 4.382-0.274 0.046-0.456 0.183-0.502 0.502-0.274 0.959-0.913 1.506-1.826 1.78-0.091 0-0.137 0.046-0.228 0.046-0.274-0.046-0.457-0.046-0.685-0.046zM15.961 8.993c-3.835 0-6.984 3.15-6.984 6.984s3.15 6.984 6.984 6.984 6.984-3.15 6.984-6.984c0-3.835-3.15-6.984-6.984-6.984zM13.588 3.241c-3.15 0.593-5.706 2.146-7.715 4.611 0.548 0.685 0.73 1.415 0.548 2.237 0 0.091 0.091 0.183 0.137 0.228 0.593 0.32 1.187 0.639 1.78 0.959 0.274 0.137 0.548 0.32 0.822 0.456 1.643-2.419 3.88-3.743 6.802-3.743s5.113 1.369 6.756 3.743c0.776-0.411 1.506-0.822 2.237-1.233 0.365-0.183 0.593-0.365 0.502-0.867-0.137-0.685 0.137-1.278 0.593-1.826-2.009-2.465-4.565-4.017-7.715-4.611-0.32 0.959-0.959 1.506-1.917 1.735 0 0.685 0 1.369 0 2.009-0.32 0-0.639 0-1.004 0 0-0.685 0-1.369 0-2.009-0.867-0.228-1.506-0.776-1.826-1.689zM5.873 24.103c2.054 2.465 4.565 4.017 7.715 4.611 0.32-0.913 0.959-1.506 1.917-1.735 0-0.685 0-1.369 0-2.009 0.365 0 0.639 0 1.004 0 0 0.685 0 1.369 0 2.009 0.959 0.228 1.552 0.822 1.872 1.735 3.15-0.639 5.706-2.146 7.715-4.611-0.593-0.913-0.639-1.187-0.548-2.237 0-0.091-0.046-0.183-0.091-0.228-0.867-0.502-1.78-0.959-2.693-1.461-1.643 2.419-3.88 3.743-6.802 3.743s-5.158-1.369-6.802-3.743c-0.913 0.502-1.78 0.959-2.648 1.461-0.046 0.046-0.137 0.137-0.091 0.228 0.183 0.867-0.046 1.598-0.548 2.237zM8.703 19.31c-0.959-2.237-0.959-4.474 0-6.71-0.959-0.502-1.872-1.050-2.83-1.552-0.639 0.685-1.369 0.959-2.282 0.867-0.822 2.693-0.822 5.341 0 8.034 0.913-0.091 1.643 0.228 2.282 0.867 0.959-0.457 1.872-0.959 2.83-1.506zM26.050 20.862c0.593-0.593 1.278-0.959 2.145-0.913 0.046 0 0.183-0.137 0.228-0.183 0.456-1.461 0.639-2.922 0.548-4.474-0.046-1.141-0.228-2.237-0.639-3.332-0.867 0.091-1.598-0.183-2.191-0.776-0.046-0.046-0.183-0.046-0.274 0-0.411 0.228-0.822 0.457-1.187 0.639-0.456 0.274-0.959 0.502-1.415 0.776 0.959 2.237 0.959 4.474 0 6.71 0.913 0.548 1.826 1.050 2.785 1.552zM15.961 3.971c0.822 0 1.506-0.685 1.506-1.461 0-0.822-0.639-1.506-1.461-1.506s-1.506 0.685-1.506 1.506c-0.046 0.776 0.639 1.461 1.461 1.461zM5.462 9.495c0-0.822-0.685-1.506-1.506-1.506s-1.506 0.685-1.506 1.506c0 0.822 0.685 1.461 1.506 1.461 0.867 0 1.506-0.685 1.506-1.461zM29.428 9.495c0-0.822-0.685-1.506-1.461-1.506-0.822 0-1.506 0.639-1.506 1.461s0.685 1.506 1.506 1.506c0.776 0.046 1.461-0.639 1.461-1.461zM5.462 22.459c0-0.822-0.685-1.506-1.506-1.506s-1.506 0.685-1.506 1.506c0 0.822 0.685 1.506 1.506 1.506 0.867 0 1.506-0.685 1.506-1.506zM29.428 22.459c0-0.822-0.685-1.506-1.461-1.506-0.822 0-1.506 0.639-1.506 1.461s0.685 1.506 1.506 1.506c0.776 0.046 1.461-0.639 1.461-1.461zM15.961 27.983c-0.822 0-1.506 0.685-1.506 1.461 0 0.822 0.685 1.506 1.506 1.506s1.506-0.685 1.506-1.506c0-0.822-0.685-1.461-1.506-1.461z"></path>
<path fill="#fff" style="fill: var(--color1, #fff)" d="M14.363 15.383c-0.959-0.867-1.096-1.917-0.822-3.059 0.274-1.187 1.461-1.963 2.602-1.872 1.324 0.137 2.191 1.141 2.282 2.465 0.046 0.913-0.137 1.735-0.913 2.419 0.137 0.091 0.274 0.228 0.411 0.32 0.73 0.456 1.506 0.913 2.237 1.324 0.183 0.091 0.274 0.228 0.228 0.457 0 0.456 0 0.913 0 1.324 0.046 0.593-0.274 1.004-0.776 1.187s-1.050 0.32-1.552 0.365c-1.643 0.137-3.332 0.183-4.976-0.091-0.274-0.046-0.548-0.137-0.822-0.228-0.548-0.228-0.867-0.639-0.822-1.233 0-0.456 0-0.913 0-1.369 0-0.183 0.046-0.274 0.183-0.365 0.776-0.456 1.506-0.913 2.282-1.369 0.183-0.046 0.32-0.137 0.456-0.274zM15.687 19.492c0.913-0.046 1.552-0.046 2.191-0.091 0.411-0.046 0.867-0.137 1.278-0.228 0.228-0.046 0.274-0.183 0.274-0.411 0.137-0.73-0.137-1.233-0.867-1.506-0.091-0.046-0.183-0.091-0.228-0.137-0.548-0.365-1.096-0.776-1.643-1.141-0.046-0.046-0.183-0.046-0.274-0.046-0.365 0-0.685 0-1.050 0-0.091 0-0.228-0-0.274 0.046-0.593 0.639-1.369 1.004-2.1 1.415-0.456 0.274-0.685 0.548-0.593 1.096 0.046 0.639 0.046 0.639 0.639 0.822 0.046 0 0.046 0 0.091 0 1.004 0.046 1.917 0.137 2.556 0.183zM14.455 13.192c0 0.137 0 0.274 0 0.411 0.046 0.776 0.685 1.324 1.415 1.369s1.415-0.456 1.506-1.187c0.046-0.411 0.046-0.822-0.046-1.187-0.228-0.913-1.324-1.369-2.145-0.913-0.502 0.32-0.73 0.867-0.73 1.506z"></path>
<path fill="#fff" style="fill: var(--color1, #fff)" d="M16.464 2.966c-0.32 0-0.639 0-0.959 0 0-0.32 0-0.639 0-0.959 0.32 0 0.639 0 0.959 0 0 0.32 0 0.639 0 0.959z"></path>
<path fill="#fff" style="fill: var(--color1, #fff)" d="M4.457 9.951c-0.32 0-0.639 0-0.959 0 0-0.32 0-0.639 0-0.959 0.32 0 0.639 0 0.959 0 0 0.32 0 0.639 0 0.959z"></path>
<path fill="#fff" style="fill: var(--color1, #fff)" d="M28.423 8.993c0 0.32 0 0.639 0 0.959-0.32 0-0.639 0-0.959 0 0-0.32 0-0.639 0-0.959 0.32 0 0.639 0 0.959 0z"></path>
<path fill="#fff" style="fill: var(--color1, #fff)" d="M4.457 22.961c-0.32 0-0.639 0-0.959 0 0-0.32 0-0.639 0-0.959 0.32 0 0.639 0 0.959 0 0 0.32 0 0.639 0 0.959z"></path>
<path fill="#fff" style="fill: var(--color1, #fff)" d="M28.423 22.003c0 0.32 0 0.639 0 0.959-0.32 0-0.639 0-0.959 0 0-0.32 0-0.639 0-0.959 0.32 0 0.639 0 0.959 0z"></path>
<path fill="#fff" style="fill: var(--color1, #fff)" d="M16.464 28.987c0 0.32 0 0.639 0 0.959-0.32 0-0.639 0-0.959 0 0-0.32 0-0.639 0-0.959 0.32 0 0.593 0 0.959 0z"></path>
</symbol>
<symbol id="icon-chevron" viewBox="0 0 36 32">
<path d="M21.058 26.789c-1.521 2.416-5.043 2.416-6.564 0l-13.128-20.843c-1.627-2.583 0.229-5.946 3.282-5.946h26.255c3.053 0 4.909 3.363 3.282 5.946l-13.128 20.843z"></path>
</symbol>
<symbol id="icon-spent" viewBox="0 0 31 32">
<path fill="#cf51ce" style="fill: var(--color2, #cf51ce)" d="M0 28.784c0-4.359 0-8.669 0-13.029 0.196-0.637 0.686-0.98 1.224-1.273 0.196-0.098 0.392-0.196 0.588-0.245 0.245-0.049 0.294-0.196 0.294-0.392 0-3.086 0-6.122 0-9.208 0-2.204 1.567-3.82 3.673-3.82 7.249 0 14.547 0 21.796 0 1.029 0 1.665 0.637 1.665 1.714 0 1.42 0 2.841 0 4.261 0 0.098 0 0.245 0 0.343 1.469 0.49 2.106 1.322 2.106 2.841 0 5.045 0 10.139 0 15.184 0 0.294 0 0.588-0.098 0.882-0.294 1.175-1.322 1.959-2.645 1.959-4.359 0-8.669 0-13.029 0-0.147 0-0.245 0-0.392 0 0 0.049 0 0.049 0 0.049 0 0.049 0 0.098 0 0.147 0.049 0.735-0.294 1.273-0.931 1.616-0.539 0.294-1.127 0.539-1.665 0.686-1.567 0.441-3.233 0.588-4.849 0.588-1.91 0-3.82-0.147-5.682-0.784-0.882-0.245-1.714-0.588-2.057-1.518zM30.318 14.922c0-0.147 0-0.245 0-0.343 0-1.567 0-3.135 0-4.702 0-1.127-0.637-1.763-1.763-1.763-7.543 0-15.135 0-22.678 0-0.98 0-1.861-0.294-2.596-0.931-0.049-0.049-0.098-0.049-0.147-0.098 0 2.253 0 4.457 0 6.661 0.098 0 0.196 0 0.294-0.049 2.596-0.539 5.192-0.539 7.837-0.098 1.029 0.147 2.057 0.441 2.988 0.98 0.588 0.441 0.931 0.931 0.931 1.714-0.049 3.429 0 6.808 0 10.237 0 0.147 0 0.245 0 0.392 0.098 0 0.196 0 0.294 0 4.408 0 8.767 0 13.175 0 1.029 0 1.714-0.637 1.714-1.714 0-1.567 0-3.184 0-4.751 0-0.098 0-0.196 0-0.294-0.833 0-1.665 0-2.449 0-0.392 0-0.784-0.049-1.175-0.196-1.127-0.441-1.763-1.714-1.518-2.89 0.245-1.224 1.273-2.106 2.498-2.106 0.784-0.049 1.665-0.049 2.596-0.049zM28.212 4.98c-0.147 0-0.294 0-0.441 0-7.592 0-15.233 0-22.825 0-0.539 0-0.784-0.196-0.784-0.539s0.245-0.539 0.784-0.539c7.592 0 15.233 0 22.825 0 0.147 0 0.245 0 0.441 0 0-0.49 0-0.931 0-1.322 0-0.588-0.147-0.735-0.735-0.735-7.2 0-14.351 0-21.551 0-0.245 0-0.49 0-0.686 0.049-1.322 0.294-2.204 1.518-2.106 2.743 0.147 1.371 1.224 2.4 2.596 2.4 7.396 0 14.792 0 22.237 0 0.098 0 0.147 0 0.245-0.049 0-0.588 0-1.273 0-2.008zM7.592 14.384c-1.469 0-2.939 0.098-4.359 0.49-0.637 0.196-1.273 0.441-1.861 0.735-0.441 0.245-0.441 0.49 0 0.735 0.343 0.196 0.686 0.343 1.029 0.49 1.127 0.392 2.253 0.539 3.429 0.637 2.057 0.147 4.114 0.098 6.171-0.392 0.588-0.147 1.175-0.392 1.763-0.686 0.49-0.245 0.49-0.539 0-0.833-0.294-0.196-0.637-0.343-0.98-0.441-1.714-0.588-3.429-0.686-5.192-0.735zM1.029 17.42c0 0.441 0.049 0.882 0 1.322-0.049 0.392 0.147 0.686 0.49 0.833 0.735 0.245 1.42 0.588 2.204 0.735 2.057 0.441 4.114 0.441 6.22 0.245 1.175-0.098 2.302-0.343 3.429-0.784 0.539-0.245 0.882-0.539 0.784-1.224-0.049-0.343 0-0.735 0-1.078-4.261 1.518-9.012 1.518-13.127-0.049zM1.029 23.69c0 0.49 0.049 0.931 0 1.371 0 0.392 0.147 0.637 0.441 0.735 0.539 0.245 1.078 0.49 1.665 0.637 2.743 0.686 5.535 0.637 8.327 0.147 0.784-0.147 1.567-0.343 2.253-0.784 0.147-0.098 0.392-0.245 0.392-0.441 0.049-0.539 0-1.127 0-1.714-2.106 0.98-4.31 1.175-6.514 1.175-2.253 0.049-4.457-0.147-6.563-1.127zM1.029 26.825c0 0.49 0 0.931 0 1.42 0 0.343 0.098 0.588 0.392 0.735 0.539 0.245 1.029 0.49 1.567 0.637 2.792 0.686 5.633 0.686 8.473 0.147 0.735-0.147 1.469-0.49 2.204-0.735 0.147-0.049 0.392-0.245 0.392-0.392 0.049-0.539 0-1.127 0-1.714-4.114 1.469-8.914 1.469-13.029-0.098zM14.106 20.555c-2.106 0.98-4.31 1.175-6.514 1.175s-4.457-0.196-6.514-1.175c0 0.539 0 1.029 0 1.518 0 0.245 0.098 0.441 0.294 0.539 0.392 0.196 0.784 0.392 1.175 0.539 1.273 0.441 2.645 0.588 3.967 0.637 1.861 0.098 3.722 0 5.535-0.49 0.588-0.147 1.175-0.441 1.714-0.686 0.147-0.049 0.343-0.294 0.343-0.441 0-0.49 0-1.029 0-1.616zM30.269 19.086c0-1.078 0-2.106 0-3.135-0.931 0-1.812 0-2.694 0-0.784 0.049-1.42 0.735-1.42 1.518s0.588 1.518 1.371 1.567c0.882 0.098 1.812 0.049 2.743 0.049z"></path>
<path fill="#cf51ce" style="fill: var(--color2, #cf51ce)" d="M24.833 10.221c-1.273 0-2.547 0-3.771 0-0.196 0-0.392-0.098-0.539-0.196-0.098-0.098-0.147-0.392-0.049-0.49 0.098-0.147 0.294-0.294 0.49-0.294 0.392-0.049 0.784 0 1.175 0 2.155 0 4.261 0 6.416 0 0.098 0 0.147 0 0.245 0 0.294 0.049 0.539 0.245 0.539 0.539s-0.245 0.49-0.539 0.49c-0.931 0-1.812 0-2.743 0-0.441-0.049-0.833-0.049-1.224-0.049z"></path>
<path fill="#cf51ce" style="fill: var(--color2, #cf51ce)" d="M18.269 10.221c-0.196 0-0.392 0-0.539 0-0.294 0-0.49-0.196-0.49-0.49s0.196-0.539 0.49-0.539c0.392 0 0.735 0 1.127 0 0.294 0 0.49 0.245 0.49 0.539s-0.245 0.49-0.539 0.49c-0.196 0-0.343 0-0.539 0z"></path>
<path fill="#cf51ce" style="fill: var(--color2, #cf51ce)" d="M27.673 18.057c-0.294 0-0.539-0.245-0.539-0.539s0.245-0.539 0.539-0.539c0.294 0 0.49 0.245 0.49 0.49 0.049 0.343-0.196 0.588-0.49 0.588z"></path>
</symbol>
</defs>
</svg>
