<svg xmlns="http://www.w3.org/2000/svg"><symbol viewBox="0 0 48.224 48" id="src-1">
<g clip-path="url(#clip0_1457_20712)">
<path d="M34.8749 14.55C33.5249 15.9 32.1749 17.25 30.7499 18.675C32.3999 20.85 32.9999 23.325 32.3999 26.025C31.8749 28.125 30.6749 29.85 28.8749 31.05C25.3499 33.525 20.6249 33 17.6999 29.85C14.6999 26.625 14.5499 21.9 17.3999 18.525C19.9499 15.45 24.8999 13.95 29.3249 17.175C30.6749 15.825 32.0249 14.475 33.3749 13.05C30.9749 11.025 28.1999 9.825 24.8999 9.6C24.8999 10.5 24.8999 11.325 24.8999 12.225C24.8999 12.975 24.5249 13.425 23.9249 13.425C23.3249 13.425 22.9499 12.975 22.9499 12.225C22.9499 10.275 22.9499 8.4 22.9499 6.45C22.9499 6.225 22.9499 6 22.9499 5.775C21.0749 5.85 19.2749 6.225 17.5499 6.9C11.5499 9.3 7.72488 13.65 6.14988 19.95C6.14988 20.1 6.07488 20.175 6.07488 20.325C5.92488 20.85 5.47488 21.15 4.94988 21.075C4.42488 20.925 4.12488 20.475 4.19988 19.875C4.72488 17.175 5.77488 14.7 7.34988 12.525C11.0999 7.5 15.9749 4.575 22.1999 3.975C22.4249 3.975 22.7249 3.9 23.0249 3.9C23.0249 3.075 23.0249 2.175 23.0249 1.35C23.0249 0.45 23.3249 0 23.9999 0C24.5999 0 24.9749 0.45 24.9749 1.275C24.9749 3.225 24.9749 5.1 24.9749 7.05C24.9749 7.275 24.9749 7.5 24.9749 7.725C28.7249 8.025 32.0249 9.375 34.7999 11.775C35.2499 11.325 35.6249 10.875 36.1499 10.35C35.1749 9.675 34.2749 8.925 33.2249 8.325C31.5749 7.35 29.8499 6.6 27.9749 6.225C27.8249 6.225 27.6749 6.15 27.5999 6.15C27.0749 6 26.7749 5.475 26.9249 4.95C27.0749 4.425 27.5249 4.125 28.1249 4.275C30.5249 4.725 32.6999 5.625 34.7249 6.975C35.6999 7.65 36.5999 8.325 37.7249 9.15C37.7999 8.85 38.0249 8.625 38.0249 8.4C38.0249 7.35 38.0249 6.375 38.0249 5.325C38.0249 4.95 38.1749 4.5 38.4749 4.275C39.6749 3 40.9499 1.725 42.2249 0.45C42.5999 0.075 42.9749 -0.075 43.4249 0.15C43.8749 0.3 44.0249 0.75 44.0249 1.2C44.0249 2.175 44.0249 3.075 44.0249 4.125C44.9999 4.125 45.9749 4.125 46.9499 4.125C47.4749 4.125 47.8499 4.275 48.0749 4.725C48.2249 5.25 48.0749 5.625 47.6999 5.925C46.4249 7.125 45.2249 8.4 44.0249 9.6C43.7249 9.9 43.2749 10.05 42.8999 10.05C41.9249 10.125 40.8749 10.05 39.8999 10.05C39.6749 10.05 39.3749 10.275 39.0749 10.35C40.7249 12.225 41.9249 14.1 42.8249 16.275C43.7249 18.45 44.1749 20.625 44.3249 23.025C45.2249 23.025 46.1249 23.025 46.9499 23.025C47.6999 23.025 48.1499 23.4 48.1499 24C48.1499 24.6 47.6999 24.975 46.9499 24.975C44.9999 24.975 43.0499 24.975 41.0999 24.975C40.8749 24.975 40.6499 24.975 40.5749 24.975C40.1249 26.625 39.8999 28.275 39.2999 29.775C37.3499 34.8 33.7499 38.1 28.5749 39.675C28.4249 39.675 28.3499 39.75 28.1999 39.75C27.5999 39.9 27.1499 39.6 26.9999 39.075C26.8499 38.55 27.1499 38.1 27.7499 37.875C28.1249 37.725 28.4999 37.65 28.7999 37.5C34.4999 35.325 37.7249 31.125 38.3999 25.125C38.3999 25.05 38.3999 25.05 38.3999 24.9C37.5749 24.9 36.6749 24.9 35.8499 24.9C35.0999 24.9 34.6499 24.525 34.6499 23.925C34.6499 23.325 35.0999 22.95 35.8499 22.95C37.7999 22.95 39.6749 22.95 41.6249 22.95C41.8499 22.95 42.0749 22.95 42.2999 22.95C41.9999 18.675 40.4999 14.925 37.7249 11.775C37.2749 12.225 36.8249 12.675 36.3749 13.125C36.4499 13.2 36.5249 13.35 36.6749 13.5C38.0999 15.225 39.1499 17.175 39.7499 19.35C40.0499 20.25 39.8249 20.775 39.2249 21C38.6249 21.15 38.1749 20.775 37.9499 19.95C37.1999 18 36.2249 16.2 34.8749 14.55ZM27.8999 18.675C25.6499 16.8 21.7499 16.65 19.1249 19.35C16.5749 22.05 16.5749 26.025 19.1999 28.65C21.8249 31.275 25.8749 31.35 28.4999 28.8C31.1999 26.25 31.1999 22.35 29.2499 19.95C28.8749 20.325 28.5749 20.625 28.1999 21C27.8999 21.225 27.9749 21.45 28.1249 21.75C28.6499 22.8 28.8749 23.85 28.5749 24.975C27.9749 27.6 25.2749 29.25 22.7249 28.575C20.0999 27.9 18.5249 25.125 19.2749 22.575C20.0999 19.95 22.8749 18.375 25.3499 19.425C26.3999 19.875 26.9999 19.575 27.5249 18.825C27.7499 18.825 27.8249 18.75 27.8999 18.675ZM26.5499 22.725C25.8749 23.4 25.2749 24.075 24.6749 24.675C24.2999 25.05 23.7749 25.05 23.3999 24.675C23.0249 24.3 22.9499 23.85 23.2499 23.4C23.3999 23.25 23.5499 23.1 23.6999 22.95C24.2249 22.425 24.7499 21.9 25.2749 21.375C23.8499 20.775 22.4249 21.225 21.6749 22.35C20.9249 23.475 21.0749 24.975 22.0499 25.95C23.0249 26.925 24.4499 27.075 25.6499 26.325C26.6999 25.575 27.1499 24.15 26.5499 22.725ZM39.8999 8.1C40.7249 8.1 41.4749 8.1 42.2249 8.1C42.3749 8.1 42.5999 8.1 42.6749 8.025C43.2749 7.425 43.9499 6.75 44.6999 6C44.0249 6 43.4999 6 43.0499 6C42.3749 6 41.9999 5.625 41.9999 4.95C41.9999 4.425 41.9999 3.9 41.9999 3.225C41.2499 3.975 40.6499 4.575 40.0499 5.175C39.9749 5.25 39.8999 5.4 39.8999 5.55C39.8249 6.45 39.8999 7.2 39.8999 8.1Z" fill="white"/>
<path d="M3.7498 24.975C2.9248 24.975 2.0248 24.975 1.1248 24.975C0.374805 24.975 -0.0751953 24.6 -0.0751953 24C-0.0751953 23.4 0.374805 23.1 1.0498 23.025C3.2248 23.025 5.3248 23.025 7.4998 23.025C7.79981 21.75 7.94981 20.55 8.32481 19.35C8.62481 18.375 9.07481 17.4 9.44981 16.5C9.74981 15.9 10.2748 15.675 10.7998 15.975C11.3248 16.275 11.4748 16.8 11.0998 17.4C10.1998 19.2 9.5998 21.075 9.52481 23.1C10.3498 23.1 11.0998 23.1 11.9248 23.1C12.8248 23.1 13.2748 23.4 13.3498 24.075C13.3498 24.75 12.8998 25.05 11.9248 25.05C10.0498 25.05 8.24981 25.05 6.3748 25.05C6.14981 25.05 5.9248 25.05 5.6998 25.05C5.7748 26.625 5.9998 28.125 6.52481 29.55C8.77481 36.075 13.1998 40.2 19.8748 41.85C20.0998 41.925 20.3998 42 20.6248 42.15C20.9998 42.45 21.1498 42.825 20.9248 43.275C20.6998 43.725 20.3248 43.95 19.7998 43.875C17.4748 43.35 15.2248 42.525 13.1998 41.25C7.79981 37.5 4.6498 32.4 3.8998 25.8C3.8998 25.575 3.8248 25.35 3.8248 25.125C3.8248 25.125 3.8248 25.05 3.7498 24.975Z" fill="white"/>
<path d="M24.9748 44.175C24.9748 45.075 24.9748 45.9 24.9748 46.8C24.9748 47.55 24.5998 48 23.9998 48C23.3998 48 23.0248 47.55 23.0248 46.8C23.0248 44.85 23.0248 42.9 23.0248 40.95C23.0248 40.725 23.0248 40.5 23.0248 40.35C22.0498 40.2 21.1498 40.05 20.2498 39.825C14.1748 38.25 10.1998 34.5 8.32481 28.5C8.24981 28.275 8.1748 28.125 8.1748 27.9C8.1748 27.375 8.39981 27.075 8.84981 26.925C9.29981 26.775 9.74981 26.925 9.97481 27.375C10.0498 27.6 10.1248 27.825 10.1998 28.05C11.8498 33.75 17.1748 38.1 23.0248 38.325C23.0248 37.5 23.0248 36.6 23.0248 35.775C23.0248 35.025 23.3998 34.575 23.9248 34.575C24.5248 34.575 24.8998 35.025 24.8998 35.775C24.8998 37.65 24.8998 39.6 24.8998 41.475C24.8998 41.7 24.8998 41.925 24.8998 42.3C26.0998 42.075 27.2998 41.925 28.4248 41.7C30.4498 41.25 32.2498 40.425 33.9748 39.3C34.1248 39.225 34.2748 39.075 34.4248 39C34.8748 38.85 35.2498 38.925 35.5498 39.3C35.8498 39.675 35.7748 40.125 35.4748 40.425C35.3248 40.575 35.0998 40.725 34.8748 40.875C31.9498 42.75 28.7248 43.8 25.2748 44.1C25.2748 44.1 25.1248 44.175 24.9748 44.175Z" fill="white"/>
<path d="M40.3505 35.3249C39.3755 35.3249 39.0005 34.5749 39.3755 33.7499C40.0505 32.3999 40.7255 30.975 41.3255 29.55C41.5505 28.95 41.7005 28.275 41.8505 27.675C42.0005 27.075 42.4505 26.7749 42.9755 26.8499C43.5005 26.9999 43.8005 27.4499 43.7255 28.1249C43.2755 30.5249 42.3755 32.6999 41.0255 34.7249C40.8005 35.0249 40.5005 35.2499 40.3505 35.3249Z" fill="white"/>
<path d="M15.3754 12.225C15.1504 12 14.7754 11.775 14.6254 11.4C14.4004 10.95 14.7004 10.575 15.0754 10.275C16.5004 9.37498 18.0754 8.62498 19.7254 8.24998C20.2504 8.09998 20.6254 8.24998 20.8504 8.69998C21.1504 9.22498 20.9254 9.89998 20.3254 10.125C18.7504 10.575 17.3254 11.175 15.9754 12.075C15.9004 12.075 15.7504 12.075 15.3754 12.225Z" fill="white"/>
<path d="M13.6504 13.65C13.6504 14.175 13.2004 14.55 12.6754 14.55C12.1504 14.55 11.7754 14.1 11.7754 13.575C11.7754 13.05 12.2254 12.675 12.7504 12.675C13.2004 12.675 13.6504 13.125 13.6504 13.65Z" fill="white"/>
<path d="M38.7 37.35C38.7 37.875 38.25 38.325 37.725 38.325C37.2 38.325 36.75 37.95 36.75 37.425C36.75 36.9 37.125 36.45 37.65 36.45C38.25 36.45 38.7 36.825 38.7 37.35Z" fill="white"/>
</g>
<defs>
<clipPath id="clip0_1457_20712">
<rect width="48" height="48" fill="white"/>
</clipPath>
</defs>
</symbol><symbol viewBox="0 0 47.99796 45.399998" id="src-2">
<path d="M3.2 40.6H24.8V43C24.8 44.325 25.875 45.4 27.2 45.4H30.4C31.1 45.4 31.7625 45.0875 32.2125 44.5625C32.225 44.5625 32.2375 44.5625 32.25 44.55C32.8375 45.1 33.6 45.4 34.4 45.4H44C45.325 45.4 46.4 44.325 46.4 43C46.4 42.5875 46.2875 42.175 46.075 41.825C47.1625 41.15 47.525 39.7375 46.875 38.625C47.475 38.25 47.875 37.625 47.975 36.925C48.075 36.225 47.85 35.5125 47.375 35C48.0125 34.3 48.175 33.2875 47.7875 32.425C47.4 31.5625 46.5375 31 45.5875 31H43.1875V6.2C43.1875 4.4375 41.75 3 39.9875 3H3.2C1.4375 3 0 4.4375 0 6.2V37.4C0 39.1625 1.4375 40.6 3.2 40.6ZM30.4 43.8H27.2C26.7625 43.8 26.4 43.4375 26.4 43V35.8C26.4 35.3625 26.7625 35 27.2 35H30.4C30.8375 35 31.2 35.3625 31.2 35.8V43C31.2 43.4375 30.8375 43.8 30.4 43.8ZM46.4 33.4C46.4 33.8375 46.0375 34.2 45.6 34.2H43.2C42.7625 34.2 42.4 34.5625 42.4 35C42.4 35.4375 42.7625 35.8 43.2 35.8H45.6C46.0375 35.8 46.4 36.1625 46.4 36.6C46.4 37.0375 46.0375 37.4 45.6 37.4H43.2C42.7625 37.4 42.4 37.7625 42.4 38.2C42.4 38.6375 42.7625 39 43.2 39H44.8C45.2375 39 45.6 39.3625 45.6 39.8C45.6 40.2375 45.2375 40.6 44.8 40.6H43.2C42.7625 40.6 42.4 40.9625 42.4 41.4C42.4 41.8375 42.7625 42.2 43.2 42.2H44C44.4375 42.2 44.8 42.5625 44.8 43C44.8 43.4375 44.4375 43.8 44 43.8H34.4C33.5125 43.8 32.8 43.0875 32.8 42.2V35.4625C33.8 34.8375 34.55 33.875 34.925 32.7625C35.6375 30.625 36 28.3875 36 26.1375C36 26.025 36.075 25.9375 36.175 25.9C36.45 25.85 37.1625 25.725 37.8375 27.05C38.2125 27.8125 38.4 28.65 38.3875 29.5125V31.8C38.3875 32.2375 38.75 32.6 39.1875 32.6H45.5875C46.0375 32.6 46.4 32.9625 46.4 33.4ZM40 31V29.5125C40.0125 28.4125 39.7625 27.3125 39.275 26.325C38.4875 24.7875 37.2875 24.075 35.9 24.325C35.025 24.4875 34.4 25.25 34.4 26.1375C34.4 28.2125 34.0625 30.2875 33.4125 32.2625C33.1625 33 32.675 33.625 32.025 34.0625C31.5875 33.65 31 33.425 30.4 33.4125H27.2C25.875 33.4125 24.8 34.4875 24.8 35.8125V39.0125H3.2C2.3125 39.0125 1.6 38.3 1.6 37.4125V11H41.6V31H40ZM3.2 4.6H40C40.8875 4.6 41.6 5.3125 41.6 6.2V9.4H1.6V6.2C1.6 5.3125 2.3125 4.6 3.2 4.6Z" fill="white"/>
<path fill-rule="evenodd" clip-rule="evenodd" d="M4.79922 6.99898C4.79922 7.43648 4.43672 7.79898 3.99922 7.79898C3.56172 7.79898 3.19922 7.43648 3.19922 6.99898C3.19922 6.56148 3.56172 6.19897 3.99922 6.19897C4.43672 6.19897 4.79922 6.56148 4.79922 6.99898Z" fill="white"/>
<path fill-rule="evenodd" clip-rule="evenodd" d="M8.00039 6.99898C8.00039 7.43648 7.63789 7.79898 7.20039 7.79898C6.76289 7.79898 6.40039 7.43648 6.40039 6.99898C6.40039 6.56148 6.76289 6.19897 7.20039 6.19897C7.63789 6.19897 8.00039 6.56148 8.00039 6.99898Z" fill="white"/>
<path fill-rule="evenodd" clip-rule="evenodd" d="M11.1996 6.99898C11.1996 7.43648 10.8371 7.79898 10.3996 7.79898C9.96211 7.79898 9.59961 7.43648 9.59961 6.99898C9.59961 6.56148 9.96211 6.19897 10.3996 6.19897C10.8371 6.19897 11.1996 6.56148 11.1996 6.99898Z" fill="white"/>
<path d="M6.4 27.8005H19.2C20.525 27.8005 21.6 26.7255 21.6 25.4005V15.8005C21.6 14.4755 20.525 13.4005 19.2 13.4005H6.4C5.075 13.4005 4 14.4755 4 15.8005V25.4005C4 26.7255 5.075 27.8005 6.4 27.8005ZM8.3625 26.2005L12.0625 20.3755L13.8375 22.6005L11.5625 26.2005H8.3625ZM19.2 26.2005H13.4625L17.675 19.5755L20 22.488V25.413C20 25.838 19.6375 26.2005 19.2 26.2005ZM5.6 15.8005C5.6 15.363 5.9625 15.0005 6.4 15.0005H19.2C19.6375 15.0005 20 15.363 20 15.8005V19.9255L18.225 17.7005C18.0625 17.5005 17.8125 17.388 17.5625 17.4005C17.3 17.413 17.075 17.5505 16.925 17.7755L14.7625 21.1755L12.625 18.5005C12.4625 18.3005 12.2125 18.188 11.9625 18.2005C11.7 18.213 11.475 18.3505 11.325 18.5755L6.475 26.2005H6.4C5.9625 26.2005 5.6 25.838 5.6 25.4005V15.8005Z" fill="white"/>
<path fill-rule="evenodd" clip-rule="evenodd" d="M8.79922 17.3995C8.79922 17.837 8.43672 18.1995 7.99922 18.1995C7.56172 18.1995 7.19922 17.837 7.19922 17.3995C7.19922 16.962 7.56172 16.5995 7.99922 16.5995C8.43672 16.5995 8.79922 16.962 8.79922 17.3995Z" fill="white"/>
<path fill-rule="evenodd" clip-rule="evenodd" d="M38.4 14.199H24.8C24.3625 14.199 24 14.5615 24 14.999C24 15.4365 24.3625 15.799 24.8 15.799H38.4C38.8375 15.799 39.2 15.4365 39.2 14.999C39.2 14.5615 38.8375 14.199 38.4 14.199Z" fill="white"/>
<path fill-rule="evenodd" clip-rule="evenodd" d="M38.4 17.4005H24.8C24.3625 17.4005 24 17.763 24 18.2005C24 18.638 24.3625 19.0005 24.8 19.0005H38.4C38.8375 19.0005 39.2 18.638 39.2 18.2005C39.2 17.763 38.8375 17.4005 38.4 17.4005Z" fill="white"/>
<path fill-rule="evenodd" clip-rule="evenodd" d="M38.4 20.5995H24.8C24.3625 20.5995 24 20.962 24 21.3995C24 21.837 24.3625 22.1995 24.8 22.1995H38.4C38.8375 22.1995 39.2 21.837 39.2 21.3995C39.2 20.962 38.8375 20.5995 38.4 20.5995Z" fill="white"/>
<path fill-rule="evenodd" clip-rule="evenodd" d="M32 23.801H24.8C24.3625 23.801 24 24.1635 24 24.601C24 25.0385 24.3625 25.401 24.8 25.401H32C32.4375 25.401 32.8 25.0385 32.8 24.601C32.8 24.1635 32.4375 23.801 32 23.801Z" fill="white"/>
<path fill-rule="evenodd" clip-rule="evenodd" d="M23.2 31H4.8C4.3625 31 4 31.3625 4 31.8C4 32.2375 4.3625 32.6 4.8 32.6H23.2C23.6375 32.6 24 32.2375 24 31.8C24 31.3625 23.6375 31 23.2 31Z" fill="white"/>
<path fill-rule="evenodd" clip-rule="evenodd" d="M20.8 34.199H4.8C4.3625 34.199 4 34.5615 4 34.999C4 35.4365 4.3625 35.799 4.8 35.799H20.8C21.2375 35.799 21.6 35.4365 21.6 34.999C21.6 34.5615 21.2375 34.199 20.8 34.199Z" fill="white"/>
</symbol><symbol viewBox="0 0 42.729336 47.250668" id="src-3">
<path d="M10.3441 47.1533C9.47401 46.7666 9.08732 46.1866 9.18399 45.2199C9.18399 44.7365 9.18399 44.1564 9.18399 43.6731C8.99065 43.6731 8.7973 43.6731 8.60395 43.6731C6.28378 43.6731 4.06029 43.6731 1.74012 43.6731C0.580042 43.6731 0 43.093 0 41.933C0 41.4496 0 40.9662 0 40.4828C0 39.9995 0.290021 39.7095 0.676715 39.7095C1.06341 39.7095 1.35343 39.9995 1.35343 40.4828C1.35343 40.9662 1.35343 41.4496 1.35343 41.933C1.35343 42.1263 1.4501 42.223 1.64345 42.223C4.15696 42.223 6.5738 42.223 9.18399 42.223C9.18399 40.6762 9.18399 39.2261 9.18399 37.776C7.34719 36.6159 6.76715 35.8425 6.47713 33.7157C5.31705 33.7157 4.15696 33.619 3.09356 33.7157C2.12682 33.8124 1.4501 34.8758 1.35343 35.9392C1.35343 36.4226 1.35343 36.8093 1.35343 37.2926C1.35343 37.776 1.06341 38.066 0.676715 38.066C0.290021 38.066 0 37.776 0 37.2926C0 36.8093 0 36.2292 0 35.7458C0.0966736 34.5858 0.676715 33.619 1.64345 32.9423C1.74012 32.8456 1.8368 32.8456 1.93347 32.749C1.54678 31.4922 1.06341 30.3321 0.773389 29.172C-0.773389 22.9849 0.193347 17.2812 3.77027 11.9641C3.96362 11.6741 4.06029 11.4808 3.86694 11.0941C3.38358 10.1273 3.57692 8.96726 4.35031 8.19387C5.1237 7.42048 6.18711 7.13046 7.25052 7.61383C7.44387 7.80717 7.63722 7.7105 7.83056 7.51715C8.99065 6.74376 10.0541 5.97037 11.2141 5.19699C11.6975 4.90696 12.0842 5.00364 12.2775 5.39033C12.4709 5.77703 12.2775 6.06705 11.8909 6.35707C10.8274 7.13046 9.76403 7.80717 8.70062 8.58056C8.50728 8.67724 8.50728 8.87058 8.60395 9.06393C8.99064 10.0307 8.7973 10.9974 8.12058 11.6741C7.44387 12.4475 6.5738 12.7375 5.5104 12.4475C5.22037 12.3508 5.1237 12.4475 4.93035 12.6409C2.99688 15.4444 1.8368 18.5379 1.54678 22.0182C1.16008 25.4984 1.74012 28.7853 3.09356 31.9756C3.19023 32.2656 3.38358 32.3623 3.77027 32.3623C5.1237 32.3623 6.47713 32.3623 7.73389 32.3623C7.83056 31.9756 7.73389 31.7822 7.54054 31.5889C6.38046 30.6221 5.60707 29.4621 5.41372 28.012C5.41372 27.7219 5.31705 27.6253 5.02703 27.5286C3.2869 27.0452 2.70686 24.9184 3.96362 23.565C4.06029 23.4683 4.15697 23.1783 4.15697 22.9849C4.15697 21.5348 4.15697 20.1814 4.15697 18.7313C4.15697 16.6045 5.5104 15.0577 7.44387 14.671C7.73389 14.5743 8.12058 14.5743 8.4106 14.5743C9.86071 14.5743 11.3108 14.5743 12.7609 14.5743C13.7277 14.5743 14.6944 14.8643 15.4678 15.5411C15.5645 15.6377 15.7578 15.6377 15.8545 15.6377C16.7245 15.251 17.5946 15.1544 18.5613 15.1544C19.0447 15.1544 19.4314 15.1544 19.9148 15.1544C20.3015 15.1544 20.5915 15.4444 20.6882 15.8311C20.6882 16.2178 20.3981 16.5078 19.9148 16.5078C19.238 16.5078 18.5613 16.5078 17.8846 16.5078C16.1445 16.5078 14.6944 17.8612 14.5977 19.6014C14.501 21.0515 14.5977 22.5016 14.5977 23.9517C14.5977 24.0483 14.5977 24.0483 14.5977 24.145C14.9844 24.2417 14.9844 24.0483 15.0811 23.7583C15.2744 22.6949 15.6611 21.7282 16.2412 20.8581C16.6279 20.3747 16.8212 20.2781 17.4012 20.4714C19.238 21.0515 20.9782 21.5348 22.9116 21.7282C23.395 21.7282 23.9751 21.7282 24.4584 21.6315C24.7484 21.5348 25.1351 21.3415 25.3285 21.1481C25.7152 20.7614 26.1985 20.7614 26.4886 21.2448C26.9719 22.0182 27.3586 22.8883 27.4553 23.7583C27.4553 23.9517 27.552 24.2417 27.842 24.145C27.842 24.0483 27.842 23.9517 27.842 23.855C27.842 22.8883 27.842 21.9215 27.842 20.9548C27.842 20.4714 27.7453 20.1814 27.1653 20.1814C26.7786 20.0847 26.5852 19.7947 26.5852 19.408C26.5852 18.6346 26.2952 18.0546 25.8119 17.4745C25.2318 16.7978 24.4584 16.5078 23.685 16.5078C23.395 16.5078 23.105 16.5078 22.9116 16.5078C22.525 16.5078 22.2349 16.2178 22.2349 15.8311C22.2349 15.4444 22.525 15.1544 22.9116 15.1544C23.9751 15.0577 25.0385 15.251 25.9085 15.7344C26.8753 14.7677 28.0353 14.4777 29.2921 14.5743C30.7422 14.5743 32.0956 14.5743 33.5457 14.5743C35.3825 14.5743 36.8326 15.7344 37.316 17.4745C37.316 17.5712 37.4127 17.7646 37.606 17.8612C38.1861 18.2479 38.4761 18.828 38.4761 19.5047C38.4761 20.5681 38.4761 21.7282 38.4761 22.7916C38.4761 22.9849 38.5728 23.2749 38.7661 23.3716C40.0229 24.7251 39.4428 26.7552 37.7027 27.3352C37.4127 27.4319 37.4127 27.5286 37.316 27.7219C37.026 29.172 36.3493 30.4288 35.1892 31.3955C34.9958 31.4922 34.9958 31.7822 34.8025 31.9756L34.8992 32.0722C35.5759 32.0722 36.1559 32.0722 36.8326 32.0722C37.5094 32.0722 38.2827 32.0722 38.9595 32.0722C39.3462 32.0722 39.4428 31.9756 39.6362 31.6856C40.9896 28.4953 41.473 25.2084 41.183 21.8248C40.8929 18.4413 39.7329 15.3477 37.8961 12.5442C37.7027 12.2542 37.5094 12.1575 37.2193 12.2542C36.2526 12.5442 35.3825 12.2542 34.7058 11.4808C34.0291 10.7074 33.8358 9.83732 34.2225 8.87058C34.1258 8.87058 34.0291 8.67724 33.8358 8.48389C31.0322 6.2604 27.842 4.81029 24.2651 4.23025C23.8784 4.13358 23.685 4.23025 23.4917 4.61694C22.5249 6.35707 20.0114 6.2604 19.0447 4.61694C18.8514 4.32692 18.658 4.23025 18.368 4.32692C17.2079 4.61694 16.0478 4.90696 14.8877 5.19699C14.6944 5.29366 14.3077 5.29366 14.1143 5.19699C13.921 5.10031 13.7277 4.81029 13.8243 4.61694C13.921 4.4236 14.1143 4.0369 14.3077 4.0369C15.4678 3.65021 16.5312 3.45686 17.6913 3.16684C17.7879 3.16684 17.7879 3.16684 17.8846 3.16684C18.4647 3.16684 18.7547 2.97349 18.948 2.39345C19.4314 1.23337 20.3015 0.75 21.4615 0.75C22.525 0.846674 23.395 1.33004 23.7817 2.39345C23.9751 2.78015 24.1684 2.87682 24.5551 2.97349C28.422 3.55353 31.8056 5.00364 34.8025 7.51715C35.0925 7.7105 35.2859 7.80717 35.6726 7.61383C36.6393 7.22713 37.7994 7.51715 38.4761 8.29054C39.1528 9.06393 39.3462 10.224 38.8628 11.1907C38.7661 11.3841 38.6694 11.5774 38.8628 11.8675C43.2131 18.3446 43.7931 25.2084 40.8929 32.4589C40.8929 32.5556 40.7963 32.6523 40.7963 32.749C40.9896 32.8456 41.0863 32.9423 41.2796 33.1357C42.2464 33.909 42.7297 34.8758 42.7297 36.1325C42.7297 38.066 42.7297 40.0962 42.7297 42.0296C42.7297 43.1897 42.1497 43.7698 40.9896 43.7698C38.6694 43.7698 36.4459 43.7698 34.1258 43.7698C33.9324 43.7698 33.7391 43.7698 33.5457 43.7698C33.5457 44.3498 33.5457 44.8332 33.5457 45.3165C33.6424 46.2833 33.2557 46.8633 32.3857 47.25C24.9418 47.1533 17.6913 47.1533 10.3441 47.1533ZM26.1985 36.1325C25.9085 39.2261 23.5884 40.8695 21.3649 40.8695C20.2048 40.8695 19.238 40.5795 18.368 39.8061C17.1112 38.8394 16.5312 37.5826 16.4345 36.0359C15.3711 36.0359 14.4044 36.0359 13.341 36.0359C11.6008 36.0359 10.5374 37.0993 10.5374 38.8394C10.5374 40.9662 10.5374 43.093 10.5374 45.2199C10.5374 45.6066 10.6341 45.7999 11.1175 45.7999C15.0811 45.7999 19.0447 45.7999 23.0083 45.7999C25.9085 45.7999 28.8087 45.7999 31.7089 45.7999C31.9023 45.7999 32.1923 45.8966 32.1923 45.5099C32.1923 43.1897 32.1923 40.9662 32.1923 38.6461C32.1923 37.3893 31.1289 36.2292 29.9688 36.2292C28.6154 36.0359 27.4553 36.1325 26.1985 36.1325ZM25.9085 22.8883C22.815 23.9517 20.1081 22.7916 17.3046 22.1149C17.2079 22.2115 17.1112 22.3082 17.1112 22.5016C16.6279 23.1783 16.4345 23.9517 16.4345 24.7251C16.4345 26.3685 16.3378 28.012 16.5312 29.5587C16.8212 32.0722 19.1414 33.909 21.6549 33.7157C24.1684 33.5224 26.1985 31.4922 26.1985 28.9787C26.1985 27.5286 26.1985 26.0785 26.1985 24.6284C26.1985 24.0483 26.0052 23.4683 25.9085 22.8883ZM7.05717 21.4382C6.9605 22.0182 6.76715 22.5016 6.67048 22.9849C6.5738 24.435 6.5738 25.9818 6.67048 27.4319C6.86383 30.0421 9.18399 31.7822 11.6975 31.3955C12.9543 31.2022 14.0177 30.4288 14.6944 29.3654C14.5977 29.3654 14.501 29.2687 14.501 29.2687C12.8576 28.592 12.2775 27.0452 13.1476 25.4984C13.1476 25.4018 13.2443 25.4018 13.2443 25.3051C13.2443 24.3384 13.2443 23.4683 13.2443 22.5016C11.1175 22.5016 9.18399 22.0182 7.05717 21.4382ZM41.183 42.3196C41.183 40.0962 41.183 37.9693 41.183 35.8425C41.183 34.8758 40.4096 33.909 39.4428 33.8124C38.2827 33.7157 37.2193 33.8124 36.0593 33.8124C35.7692 35.9392 35.1892 36.8093 33.3524 37.8727C33.3524 39.4194 33.3524 40.8695 33.3524 42.3196C36.0593 42.3196 38.5728 42.3196 41.183 42.3196ZM27.9387 29.2687C27.9387 29.3654 28.0353 29.4621 28.0353 29.4621C29.0021 30.9122 30.9356 31.6856 32.579 31.2989C34.4158 30.8155 35.7692 29.3654 35.8659 27.5286C35.9626 26.1752 35.9626 24.7251 35.8659 23.3716C35.8659 22.8883 35.6726 22.3082 35.6726 21.8248C33.4491 22.8883 31.4189 22.2115 29.2921 21.8248C29.2921 22.7916 29.2921 23.7583 29.2921 24.7251C29.2921 25.0151 29.3888 25.2084 29.4854 25.4018C30.1622 26.7552 29.6788 28.3987 28.2287 28.9787C28.132 29.172 28.0353 29.2687 27.9387 29.2687ZM27.0686 16.7011C27.3586 17.3779 27.6486 18.0546 27.9387 18.7313C28.0353 19.0213 28.132 19.118 28.3254 19.3113C28.6154 19.6014 28.9054 19.8914 29.1954 20.2781C29.2921 20.3747 29.4854 20.5681 29.5821 20.6648C30.2588 20.8581 30.8389 21.0515 31.5156 21.0515C32.4823 21.1481 33.3524 21.1481 34.3191 21.0515C34.6091 21.0515 34.8025 20.6648 34.9958 20.4714C35.1892 20.2781 35.3825 19.988 35.5759 19.988C35.7692 19.988 36.0593 20.1814 36.2526 20.3747C36.5426 20.7614 36.736 21.1481 36.9293 21.6315C36.9293 20.8581 36.9293 20.1814 36.9293 19.6014C36.9293 19.5047 36.736 19.3113 36.6393 19.2147C36.1559 19.118 35.9626 18.828 35.9626 18.3446C35.8659 17.0878 34.8992 16.1211 33.6424 16.1211C31.999 16.1211 30.3555 16.1211 28.7121 16.1211C28.0353 16.0244 27.4553 16.3145 27.0686 16.7011ZM5.60707 21.4382C5.80042 21.1481 5.99376 20.8581 6.09044 20.5681C6.47713 19.988 6.67048 19.8914 7.34719 20.0847C8.31393 20.3747 9.28067 20.5681 10.2474 20.8581C11.2141 21.0515 12.2775 21.2448 13.341 21.0515C13.2443 19.408 13.4376 17.8612 14.5977 16.7011C14.1143 16.3145 13.631 16.1211 13.0509 16.1211C11.4075 16.1211 9.86071 16.1211 8.21726 16.1211C6.76715 16.1211 5.70374 17.0878 5.60707 18.5379C5.5104 19.408 5.60707 20.4714 5.60707 21.4382ZM23.2983 34.7791C21.7516 35.1658 21.2682 35.2625 19.238 34.7791C19.5281 35.9392 18.8514 36.2292 17.8846 36.0359C17.9813 37.9693 19.5281 39.5161 21.4615 39.5161C23.395 39.4194 24.9418 37.8727 24.8451 36.1325C24.4584 36.0359 23.9751 36.0359 23.7817 35.8425C23.395 35.6492 23.395 35.1658 23.2983 34.7791ZM9.66736 36.5192C10.1507 36.0359 10.6341 35.6492 11.1175 35.2625C11.8909 34.7791 12.6642 34.6824 13.631 34.6824C13.8243 34.6824 14.0177 34.5858 14.0177 34.4891C14.1143 34.2957 14.1143 34.0057 14.211 33.619C13.341 33.7157 12.7609 33.5224 12.8576 32.4589C11.6008 32.8456 10.4407 32.8456 9.28067 32.5556C9.18399 32.9423 9.08732 33.329 8.89397 33.5224C8.70062 33.7157 8.21726 33.7157 7.92724 33.8124C7.83056 34.8758 8.60395 36.0359 9.66736 36.5192ZM29.7755 32.5556C29.5821 33.5224 29.5821 33.5224 28.5187 33.7157C28.422 34.5858 28.5187 34.6824 29.3888 34.6824C30.4522 34.6824 31.4189 34.9725 32.1923 35.7458C32.4823 35.9392 32.6757 36.2292 32.9657 36.5192C34.1258 36.0359 34.9958 34.6824 34.8025 33.7157C33.7391 33.619 33.6424 33.7157 33.5457 32.5556C32.1923 32.9423 31.0322 32.8456 29.7755 32.5556ZM6.18711 11.2874C6.86383 11.2874 7.44387 10.7074 7.44387 10.0307C7.44387 9.35395 6.86383 8.77391 6.28378 8.77391C5.60707 8.77391 5.02703 9.25728 5.02703 9.93399C4.93035 10.7074 5.5104 11.2874 6.18711 11.2874ZM21.2682 4.52027C21.9449 4.52027 22.5249 3.94023 22.5249 3.26351C22.5249 2.5868 21.9449 2.10343 21.2682 2.00676C20.5915 2.00676 20.0114 2.5868 20.0114 3.26351C20.1081 4.0369 20.5915 4.52027 21.2682 4.52027ZM36.4459 11.2874C37.1227 11.2874 37.7027 10.7074 37.7027 10.0307C37.7027 9.35395 37.2193 8.87058 36.5426 8.77391C35.8659 8.77391 35.2859 9.25728 35.2859 9.93399C35.1892 10.7074 35.7692 11.2874 36.4459 11.2874ZM17.7879 34.6824C17.8846 34.1024 17.6913 33.7157 17.3046 33.7157C16.7245 33.619 16.1445 33.7157 15.4678 33.7157C15.4678 34.1024 15.3711 34.3924 15.3711 34.6824C16.2412 34.6824 17.0146 34.6824 17.7879 34.6824ZM27.0686 33.7157C26.5852 33.7157 26.1019 33.7157 25.6185 33.7157C24.9418 33.7157 24.6518 34.0057 24.8451 34.6824C25.6185 34.6824 26.3919 34.6824 27.262 34.6824C27.1653 34.2957 27.1653 34.0057 27.0686 33.7157ZM28.422 32.2656C28.422 31.3955 27.552 31.2989 27.262 30.7188C26.9719 31.2989 26.7786 31.6856 26.4886 32.2656C27.1653 32.2656 27.7453 32.2656 28.422 32.2656ZM16.0478 32.2656C15.7578 31.7822 15.5645 31.2989 15.2744 30.8155C14.9844 31.1055 14.7911 31.2989 14.501 31.4922C14.211 31.6856 13.921 31.8789 14.1143 32.2656C14.8877 32.2656 15.4678 32.2656 16.0478 32.2656ZM14.9844 27.9153C14.9844 27.1419 14.9844 26.4652 14.9844 25.6918C14.4044 25.7885 14.1143 26.1752 14.1143 26.6585C14.1143 27.2386 14.4044 27.7219 14.9844 27.9153ZM27.552 25.6918C27.552 26.4652 27.552 27.1419 27.552 27.9153C28.132 27.8186 28.422 27.3352 28.422 26.8519C28.5187 26.2718 28.132 25.8851 27.552 25.6918ZM5.31705 24.3384C4.83368 24.5317 4.64033 24.9184 4.64033 25.3051C4.64033 25.6918 4.83368 25.9818 5.31705 26.1752C5.31705 25.5951 5.31705 25.0151 5.31705 24.3384ZM37.316 26.1752C37.7994 25.9818 37.9927 25.6918 37.9927 25.2084C37.9927 24.8217 37.7994 24.5317 37.316 24.3384C37.316 25.0151 37.316 25.5951 37.316 26.1752Z" fill="white"/>
</symbol><symbol viewBox="0 0 45.68369 48" id="src-4">
<path d="M23.4629 47.9315C22.5727 47.7261 21.751 47.4522 21.2032 46.699C20.8609 46.2197 20.587 45.6034 20.3131 45.0556C20.1761 44.7817 20.1077 44.6448 19.8338 44.5763C18.0535 44.234 16.2731 43.6177 14.6298 42.796C12.0278 41.495 9.76815 39.7147 7.91936 37.4551C7.71394 37.1812 7.50852 37.1812 7.23463 37.2496C5.52279 37.8659 3.674 37.1127 2.78384 35.5378C1.89368 33.8944 2.23605 31.9087 3.74247 30.8131C4.01637 30.6077 4.08484 30.4023 3.94789 30.0599C2.71537 26.02 2.71537 21.9116 3.94789 17.8716C4.01637 17.5977 4.01637 17.3923 3.74247 17.1869C2.23605 16.0913 1.82521 14.1056 2.71537 12.4622C3.60553 10.8188 5.45431 10.1341 7.23463 10.7504C7.57699 10.8873 7.71394 10.7504 7.91936 10.5449C9.76815 8.28531 12.0278 6.50499 14.6298 5.20399C16.2047 4.38231 17.9165 3.83452 19.6283 3.49215C20.0392 3.42368 20.3131 3.28673 20.45 2.73894C20.7239 1.09558 22.2988 0 24.0107 0C25.7225 0 27.2289 1.23252 27.5713 2.87589C27.6398 3.28673 27.8452 3.42368 28.1876 3.49215C30.995 4.03994 33.5285 5.13552 35.8566 6.77889C37.4315 7.87447 38.801 9.10699 39.965 10.5449C40.1704 10.8188 40.3759 10.8873 40.7182 10.7504C42.3616 10.1341 44.2789 10.8873 45.169 12.3937C46.0592 14.0371 45.7168 16.0228 44.2789 17.1184C44.005 17.3238 43.9365 17.5292 44.005 17.8716C45.2375 21.9116 45.2375 26.02 44.005 30.0599C43.9365 30.3338 43.9365 30.5392 44.2104 30.7447C45.5798 31.7718 46.0592 33.689 45.3744 35.2639C44.6212 36.9073 42.8409 37.8659 41.1975 37.3866C40.4443 37.1812 40.102 37.3866 39.6226 37.9344C36.6098 41.3581 32.7753 43.5492 28.3245 44.5078C27.9137 44.5763 27.6398 44.7817 27.5713 45.2611C27.1604 46.699 26.2018 47.5207 24.8323 47.9315C24.6954 47.9315 24.6269 48 24.49 48C24.0791 47.9315 23.8052 47.9315 23.4629 47.9315ZM23.9422 13.4893C18.1904 13.4893 13.4657 18.214 13.4657 23.9658C13.4657 29.7175 18.1904 34.4422 23.9422 34.4422C29.694 34.4422 34.4186 29.7175 34.4186 23.9658C34.4186 18.214 29.694 13.4893 23.9422 13.4893ZM20.3816 4.86163C15.6569 5.75178 11.8224 8.07989 8.80952 11.7775C9.6312 12.8046 9.9051 13.9001 9.6312 15.1327C9.6312 15.2696 9.76815 15.4066 9.83662 15.475C10.7268 15.9544 11.6169 16.4337 12.5071 16.913C12.9179 17.1184 13.3288 17.3923 13.7396 17.5977C16.2047 13.9686 19.5599 11.9829 23.9422 11.9829C28.3245 11.9829 31.6112 14.0371 34.0763 17.5977C35.2403 16.9815 36.3359 16.3652 37.4315 15.7489C37.9793 15.475 38.3216 15.2011 38.1847 14.4479C37.9793 13.4208 38.3901 12.5307 39.0749 11.709C36.062 8.01141 32.2275 5.68331 27.5028 4.79315C27.0235 6.2311 26.0649 7.05278 24.6269 7.39515C24.6269 8.42225 24.6269 9.44936 24.6269 10.408C24.1476 10.408 23.6683 10.408 23.1205 10.408C23.1205 9.38089 23.1205 8.35378 23.1205 7.39515C21.8195 7.05278 20.8609 6.2311 20.3816 4.86163ZM8.80952 36.1541C11.8908 39.8516 15.6569 42.1797 20.3816 43.0699C20.8609 41.7004 21.8195 40.8103 23.2575 40.4679C23.2575 39.4408 23.2575 38.4137 23.2575 37.4551C23.8052 37.4551 24.2161 37.4551 24.7639 37.4551C24.7639 38.4822 24.7639 39.5093 24.7639 40.4679C26.2018 40.8103 27.092 41.7004 27.5713 43.0699C32.296 42.1113 36.1305 39.8516 39.1433 36.1541C38.2532 34.7846 38.1847 34.3738 38.3216 32.7989C38.3216 32.6619 38.2532 32.525 38.1847 32.4565C36.8837 31.7033 35.5142 31.0185 34.1448 30.2653C31.6797 33.8944 28.3245 35.8802 23.9422 35.8802C19.5599 35.8802 16.2047 33.826 13.7396 30.2653C12.3701 31.0185 11.0691 31.7033 9.76815 32.4565C9.69968 32.525 9.56273 32.6619 9.6312 32.7989C9.9051 34.0999 9.56273 35.1954 8.80952 36.1541ZM13.0549 28.9643C11.6169 25.6091 11.6169 22.2539 13.0549 18.8987C11.6169 18.1455 10.2475 17.3238 8.80952 16.5706C7.85089 17.5977 6.75531 18.0086 5.38584 17.8716C4.15331 21.9116 4.15331 25.883 5.38584 29.923C6.75531 29.786 7.85089 30.2653 8.80952 31.224C10.2475 30.5392 11.6169 29.786 13.0549 28.9643ZM39.0749 31.2924C39.965 30.4023 40.9921 29.8545 42.2931 29.923C42.3616 29.923 42.567 29.7175 42.6355 29.6491C43.3202 27.4579 43.5941 25.2668 43.4572 22.9387C43.3887 21.2268 43.1148 19.5835 42.4985 17.9401C41.1975 18.077 40.102 17.6662 39.2118 16.776C39.1433 16.7076 38.9379 16.7076 38.801 16.776C38.1847 17.1184 37.5684 17.4608 37.0206 17.7347C36.3359 18.1455 35.5827 18.4879 34.898 18.8987C36.3359 22.2539 36.3359 25.6091 34.898 28.9643C36.2674 29.786 37.6369 30.5392 39.0749 31.2924ZM23.9422 5.9572C25.1747 5.9572 26.2018 4.9301 26.2018 3.76605C26.2018 2.53352 25.2432 1.50642 24.0107 1.50642C22.7781 1.50642 21.751 2.53352 21.751 3.76605C21.6826 4.9301 22.7097 5.9572 23.9422 5.9572ZM8.19326 14.2425C8.19326 13.01 7.16615 11.9829 5.93363 11.9829C4.7011 11.9829 3.674 13.01 3.674 14.2425C3.674 15.475 4.7011 16.4337 5.93363 16.4337C7.23463 16.4337 8.19326 15.4066 8.19326 14.2425ZM44.1419 14.2425C44.1419 13.01 43.1148 11.9829 41.9507 11.9829C40.7182 11.9829 39.6911 12.9415 39.6911 14.174C39.6911 15.4066 40.7182 16.4337 41.9507 16.4337C43.1148 16.5021 44.1419 15.475 44.1419 14.2425ZM8.19326 33.689C8.19326 32.4565 7.16615 31.4294 5.93363 31.4294C4.7011 31.4294 3.674 32.4565 3.674 33.689C3.674 34.9215 4.7011 35.9486 5.93363 35.9486C7.23463 35.9486 8.19326 34.9215 8.19326 33.689ZM44.1419 33.689C44.1419 32.4565 43.1148 31.4294 41.9507 31.4294C40.7182 31.4294 39.6911 32.388 39.6911 33.6205C39.6911 34.8531 40.7182 35.8802 41.9507 35.8802C43.1148 35.9486 44.1419 34.9215 44.1419 33.689ZM23.9422 41.9743C22.7097 41.9743 21.6826 43.0014 21.6826 44.1655C21.6826 45.398 22.7097 46.4251 23.9422 46.4251C25.1747 46.4251 26.2018 45.398 26.2018 44.1655C26.2018 42.933 25.1747 41.9743 23.9422 41.9743Z" fill="white"/>
<path d="M21.545 23.0748C20.1071 21.7738 19.9017 20.1989 20.3125 18.487C20.7233 16.7067 22.5037 15.5427 24.2155 15.6796C26.2012 15.885 27.5022 17.3915 27.6392 19.3772C27.7077 20.7467 27.4338 21.9792 26.2697 23.0063C26.4751 23.1432 26.6806 23.3487 26.886 23.4856C27.9816 24.1703 29.1456 24.8551 30.2412 25.4713C30.5151 25.6083 30.652 25.8137 30.5835 26.1561C30.5835 26.8408 30.5835 27.5255 30.5835 28.1418C30.652 29.032 30.1727 29.6482 29.4195 29.9221C28.6663 30.196 27.8446 30.4014 27.0914 30.4699C24.6263 30.6753 22.0928 30.7438 19.6278 30.333C19.2169 30.2645 18.8061 30.1275 18.3952 29.9906C17.5736 29.6482 17.0942 29.032 17.1627 28.1418C17.1627 27.4571 17.1627 26.7723 17.1627 26.0876C17.1627 25.8137 17.2312 25.6768 17.4366 25.5398C18.6007 24.8551 19.6962 24.1703 20.8603 23.4856C21.1342 23.4171 21.3396 23.2802 21.545 23.0748ZM23.5308 29.2374C24.9002 29.1689 25.8589 29.1689 26.8175 29.1004C27.4338 29.032 28.1185 28.895 28.7348 28.7581C29.0771 28.6896 29.1456 28.4842 29.1456 28.1418C29.351 27.0462 28.9402 26.293 27.8446 25.8822C27.7077 25.8137 27.5707 25.7452 27.5022 25.6768C26.6806 25.129 25.8589 24.5127 25.0372 23.9649C24.9687 23.8964 24.7633 23.8965 24.6263 23.8965C24.0786 23.8965 23.5992 23.8965 23.0515 23.8965C22.9145 23.8965 22.7091 23.8964 22.6406 23.9649C21.7505 24.9236 20.5864 25.4713 19.4908 26.0876C18.8061 26.4984 18.4637 26.9093 18.6007 27.731C18.6691 28.6896 18.6691 28.6896 19.5593 28.9635C19.6278 28.9635 19.6278 28.9635 19.6962 28.9635C21.2027 29.032 22.5721 29.1689 23.5308 29.2374ZM21.682 19.788C21.682 19.9935 21.682 20.1989 21.682 20.4043C21.7505 21.5683 22.7091 22.39 23.8047 22.4585C24.9002 22.527 25.9273 21.7738 26.0643 20.6782C26.1328 20.0619 26.1328 19.4457 25.9958 18.8979C25.6535 17.5284 24.0101 16.8437 22.7776 17.5284C22.0243 18.0077 21.682 18.8294 21.682 19.788Z" fill="white"/>
<path d="M24.6958 4.44966C24.2164 4.44966 23.7371 4.44966 23.2578 4.44966C23.2578 3.97035 23.2578 3.49103 23.2578 3.01172C23.7371 3.01172 24.2164 3.01172 24.6958 3.01172C24.6958 3.49103 24.6958 3.97035 24.6958 4.44966Z" fill="white"/>
<path d="M6.68599 14.9267C6.20668 14.9267 5.72736 14.9267 5.24805 14.9267C5.24805 14.4474 5.24805 13.9681 5.24805 13.4888C5.72736 13.4888 6.20668 13.4888 6.68599 13.4888C6.68599 13.9681 6.68599 14.4474 6.68599 14.9267Z" fill="white"/>
<path d="M42.6352 13.4888C42.6352 13.9681 42.6352 14.4474 42.6352 14.9267C42.1559 14.9267 41.6766 14.9267 41.1973 14.9267C41.1973 14.4474 41.1973 13.9681 41.1973 13.4888C41.6766 13.4888 42.1559 13.4888 42.6352 13.4888Z" fill="white"/>
<path d="M6.68599 34.4417C6.20668 34.4417 5.72736 34.4417 5.24805 34.4417C5.24805 33.9624 5.24805 33.4831 5.24805 33.0038C5.72736 33.0038 6.20668 33.0038 6.68599 33.0038C6.68599 33.4831 6.68599 33.9624 6.68599 34.4417Z" fill="white"/>
<path d="M42.6352 33.0038C42.6352 33.4831 42.6352 33.9624 42.6352 34.4417C42.1559 34.4417 41.6766 34.4417 41.1973 34.4417C41.1973 33.9624 41.1973 33.4831 41.1973 33.0038C41.6766 33.0038 42.1559 33.0038 42.6352 33.0038Z" fill="white"/>
<path d="M24.6958 43.4807C24.6958 43.96 24.6958 44.4393 24.6958 44.9187C24.2164 44.9187 23.7371 44.9187 23.2578 44.9187C23.2578 44.4393 23.2578 43.96 23.2578 43.4807C23.7371 43.4807 24.148 43.4807 24.6958 43.4807Z" fill="white"/>
</symbol><symbol viewBox="0 0 48 47.600002" id="src-5">
<path d="M0 44.075C0 37.4 0 30.8 0 24.125C0.3 23.15 1.05 22.625 1.875 22.175C2.175 22.025 2.475 21.875 2.775 21.8C3.15 21.725 3.225 21.5 3.225 21.2C3.225 16.475 3.225 11.825 3.225 7.1C3.225 3.725 5.625 1.25 8.85 1.25C19.95 1.25 31.125 1.25 42.225 1.25C43.8 1.25 44.775 2.225 44.775 3.875C44.775 6.05 44.775 8.225 44.775 10.4C44.775 10.55 44.775 10.775 44.775 10.925C47.025 11.675 48 12.95 48 15.275C48 23 48 30.8 48 38.525C48 38.975 48 39.425 47.85 39.875C47.4 41.675 45.825 42.875 43.8 42.875C37.125 42.875 30.525 42.875 23.85 42.875C23.625 42.875 23.475 42.875 23.25 42.875C23.25 42.95 23.25 42.95 23.25 42.95C23.25 43.025 23.25 43.1 23.25 43.175C23.325 44.3 22.8 45.125 21.825 45.65C21 46.1 20.1 46.475 19.275 46.7C16.875 47.375 14.325 47.6 11.85 47.6C8.925 47.6 6 47.375 3.15 46.4C1.8 46.025 0.525 45.5 0 44.075ZM46.425 22.85C46.425 22.625 46.425 22.475 46.425 22.325C46.425 19.925 46.425 17.525 46.425 15.125C46.425 13.4 45.45 12.425 43.725 12.425C32.175 12.425 20.55 12.425 9 12.425C7.5 12.425 6.15 11.975 5.025 11C4.95 10.925 4.875 10.925 4.8 10.85C4.8 14.3 4.8 17.675 4.8 21.05C4.95 21.05 5.1 21.05 5.25 20.975C9.225 20.15 13.2 20.15 17.25 20.825C18.825 21.05 20.4 21.5 21.825 22.325C22.725 23 23.25 23.75 23.25 24.95C23.175 30.2 23.25 35.375 23.25 40.625C23.25 40.85 23.25 41 23.25 41.225C23.4 41.225 23.55 41.225 23.7 41.225C30.45 41.225 37.125 41.225 43.875 41.225C45.45 41.225 46.5 40.25 46.5 38.6C46.5 36.2 46.5 33.725 46.5 31.325C46.5 31.175 46.5 31.025 46.5 30.875C45.225 30.875 43.95 30.875 42.75 30.875C42.15 30.875 41.55 30.8 40.95 30.575C39.225 29.9 38.25 27.95 38.625 26.15C39 24.275 40.575 22.925 42.45 22.925C43.65 22.85 45 22.85 46.425 22.85ZM43.2 7.625C42.975 7.625 42.75 7.625 42.525 7.625C30.9 7.625 19.2 7.625 7.575 7.625C6.75 7.625 6.375 7.325 6.375 6.8C6.375 6.275 6.75 5.975 7.575 5.975C19.2 5.975 30.9 5.975 42.525 5.975C42.75 5.975 42.9 5.975 43.2 5.975C43.2 5.225 43.2 4.55 43.2 3.95C43.2 3.05 42.975 2.825 42.075 2.825C31.05 2.825 20.1 2.825 9.075 2.825C8.7 2.825 8.325 2.825 8.025 2.9C6 3.35 4.65 5.225 4.8 7.1C5.025 9.2 6.675 10.775 8.775 10.775C20.1 10.775 31.425 10.775 42.825 10.775C42.975 10.775 43.05 10.775 43.2 10.7C43.2 9.8 43.2 8.75 43.2 7.625ZM11.625 22.025C9.375 22.025 7.125 22.175 4.95 22.775C3.975 23.075 3 23.45 2.1 23.9C1.425 24.275 1.425 24.65 2.1 25.025C2.625 25.325 3.15 25.55 3.675 25.775C5.4 26.375 7.125 26.6 8.925 26.75C12.075 26.975 15.225 26.9 18.375 26.15C19.275 25.925 20.175 25.55 21.075 25.1C21.825 24.725 21.825 24.275 21.075 23.825C20.625 23.525 20.1 23.3 19.575 23.15C16.95 22.25 14.325 22.1 11.625 22.025ZM1.575 26.675C1.575 27.35 1.65 28.025 1.575 28.7C1.5 29.3 1.8 29.75 2.325 29.975C3.45 30.35 4.5 30.875 5.7 31.1C8.85 31.775 12 31.775 15.225 31.475C17.025 31.325 18.75 30.95 20.475 30.275C21.3 29.9 21.825 29.45 21.675 28.4C21.6 27.875 21.675 27.275 21.675 26.75C15.15 29.075 7.875 29.075 1.575 26.675ZM1.575 36.275C1.575 37.025 1.65 37.7 1.575 38.375C1.575 38.975 1.8 39.35 2.25 39.5C3.075 39.875 3.9 40.25 4.8 40.475C9 41.525 13.275 41.45 17.55 40.7C18.75 40.475 19.95 40.175 21 39.5C21.225 39.35 21.6 39.125 21.6 38.825C21.675 38 21.6 37.1 21.6 36.2C18.375 37.7 15 38 11.625 38C8.175 38.075 4.8 37.775 1.575 36.275ZM1.575 41.075C1.575 41.825 1.575 42.5 1.575 43.25C1.575 43.775 1.725 44.15 2.175 44.375C3 44.75 3.75 45.125 4.575 45.35C8.85 46.4 13.2 46.4 17.55 45.575C18.675 45.35 19.8 44.825 20.925 44.45C21.15 44.375 21.525 44.075 21.525 43.85C21.6 43.025 21.525 42.125 21.525 41.225C15.225 43.475 7.875 43.475 1.575 41.075ZM21.6 31.475C18.375 32.975 15 33.275 11.625 33.275C8.25 33.275 4.8 32.975 1.65 31.475C1.65 32.3 1.65 33.05 1.65 33.8C1.65 34.175 1.8 34.475 2.1 34.625C2.7 34.925 3.3 35.225 3.9 35.45C5.85 36.125 7.95 36.35 9.975 36.425C12.825 36.575 15.675 36.425 18.45 35.675C19.35 35.45 20.25 35 21.075 34.625C21.3 34.55 21.6 34.175 21.6 33.95C21.6 33.2 21.6 32.375 21.6 31.475ZM46.35 29.225C46.35 27.575 46.35 26 46.35 24.425C44.925 24.425 43.575 24.425 42.225 24.425C41.025 24.5 40.05 25.55 40.05 26.75C40.05 27.95 40.95 29.075 42.15 29.15C43.5 29.3 44.925 29.225 46.35 29.225Z" fill="#CF51CE"/>
<path d="M38.0253 15.6505C36.0753 15.6505 34.1253 15.6505 32.2503 15.6505C31.9503 15.6505 31.6503 15.5005 31.4253 15.3505C31.2753 15.2005 31.2003 14.7505 31.3503 14.6005C31.5003 14.3755 31.8003 14.1505 32.1003 14.1505C32.7003 14.0755 33.3003 14.1505 33.9003 14.1505C37.2003 14.1505 40.4253 14.1505 43.7253 14.1505C43.8753 14.1505 43.9503 14.1505 44.1003 14.1505C44.5503 14.2255 44.9253 14.5255 44.9253 14.9755C44.9253 15.4255 44.5503 15.7255 44.1003 15.7255C42.6753 15.7255 41.3253 15.7255 39.9003 15.7255C39.2253 15.6505 38.6253 15.6505 38.0253 15.6505Z" fill="#CF51CE"/>
<path d="M27.9744 15.6512C27.6744 15.6512 27.3744 15.6512 27.1494 15.6512C26.6994 15.6512 26.3994 15.3512 26.3994 14.9012C26.3994 14.4512 26.6994 14.0762 27.1494 14.0762C27.7494 14.0762 28.2744 14.0762 28.8744 14.0762C29.3244 14.0762 29.6244 14.4512 29.6244 14.9012C29.6244 15.3512 29.2494 15.6512 28.7994 15.6512C28.4994 15.6512 28.2744 15.6512 27.9744 15.6512Z" fill="#CF51CE"/>
<path d="M42.3738 27.65C41.9238 27.65 41.5488 27.275 41.5488 26.825C41.5488 26.375 41.9238 26 42.3738 26C42.8238 26 43.1238 26.375 43.1238 26.75C43.1988 27.275 42.8238 27.65 42.3738 27.65Z" fill="#CF51CE"/>
</symbol><symbol viewBox="0 0 9.784187 8.043666" id="src-6">
<path d="M5.92254 7.53442C5.49466 8.21378 4.50428 8.21378 4.07639 7.53442L0.384211 1.6723C-0.0733381 0.945841 0.448747 -1.92373e-06 1.30729 -1.84868e-06L8.69165 -1.20312e-06C9.55019 -1.12806e-06 10.0723 0.945839 9.61472 1.6723L5.92254 7.53442Z" fill="#331A2F" fill-opacity="0.9"/>
</symbol><symbol viewBox="0 0 19.374666 18.752682" id="src-7">
<path d="M13.1225 13.327L14.7379 11.7116C14.9554 11.4967 15.2307 11.3496 15.5303 11.2882C15.8298 11.2267 16.1408 11.2536 16.4254 11.3654L18.3941 12.1515C18.6817 12.2682 18.9283 12.4675 19.1029 12.7242C19.2774 12.9808 19.3721 13.2834 19.3749 13.5938V17.1996C19.3732 17.4107 19.3288 17.6194 19.2444 17.8129C19.16 18.0064 19.0373 18.1809 18.8837 18.3257C18.73 18.4706 18.5487 18.5829 18.3505 18.6558C18.1524 18.7287 17.9415 18.7608 17.7307 18.7501C3.93494 17.8919 1.15128 6.20918 0.624838 1.73801C0.6004 1.51845 0.622729 1.2962 0.690354 1.08588C0.757979 0.875564 0.869369 0.681949 1.0172 0.517773C1.16502 0.353597 1.34593 0.222582 1.54803 0.133345C1.75013 0.0441085 1.96883 -0.00132632 2.18975 2.94729e-05H5.67293C5.98375 0.000949514 6.2872 0.094838 6.54423 0.269619C6.80126 0.444399 7.00012 0.692079 7.11524 0.980802L7.9013 2.94956C8.01687 3.23302 8.04635 3.54425 7.98607 3.84438C7.92579 4.1445 7.77842 4.42021 7.56236 4.63706L5.94697 6.25245C5.94697 6.25245 6.87726 12.5481 13.1225 13.327Z" fill="#331A2F"/>
</symbol><symbol viewBox="0 0 22.999878 22.999765" id="src-8">
<path d="M1.80675 15.1776C1.22194 15.3995 0.922763 16.0567 1.20106 16.6169C2.19378 18.615 3.75079 20.2892 5.69037 21.4246C7.95702 22.7515 10.6096 23.2625 13.2069 22.8726C15.8043 22.4828 18.1899 21.2156 19.9672 19.2818C21.7445 17.348 22.8062 14.8641 22.976 12.2432C23.1457 9.62222 22.4132 7.02213 20.9002 4.87526C19.3871 2.72839 17.1849 1.16411 14.6595 0.442526C12.1341 -0.279056 9.4378 -0.114455 7.01895 0.908958C4.94913 1.78469 3.18919 3.24411 1.94705 5.09754C1.59882 5.61713 1.81074 6.30741 2.36204 6.60286C2.91335 6.89831 3.59437 6.68584 3.95504 6.17481C4.94393 4.77369 6.30844 3.66905 7.90155 2.99501C9.84398 2.17317 12.0092 2.04099 14.0372 2.62045C16.0651 3.1999 17.8337 4.45608 19.0487 6.18009C20.2637 7.90411 20.8519 9.99207 20.7156 12.0968C20.5793 14.2015 19.7267 16.1962 18.2995 17.7491C16.8723 19.302 14.9565 20.3196 12.8707 20.6326C10.7849 20.9457 8.65486 20.5353 6.83465 19.4698C5.34178 18.5959 4.13115 17.3245 3.33123 15.8076C3.03948 15.2543 2.39155 14.9558 1.80675 15.1776Z" fill="white"/>
<path d="M1.4375 10.6C0.940444 10.6 0.5375 11.0029 0.5375 11.5C0.5375 11.9971 0.940444 12.4 1.4375 12.4L1.4375 10.6ZM16.4489 12.1364C16.8004 11.7849 16.8004 11.2151 16.4489 10.8636L10.7213 5.13604C10.3699 4.78457 9.80001 4.78457 9.44854 5.13604C9.09707 5.48751 9.09707 6.05736 9.44854 6.40883L14.5397 11.5L9.44854 16.5912C9.09707 16.9426 9.09707 17.5125 9.44854 17.864C9.80001 18.2154 10.3699 18.2154 10.7213 17.864L16.4489 12.1364ZM1.4375 12.4L15.8125 12.4V10.6L1.4375 10.6L1.4375 12.4Z" fill="white"/>
</symbol></svg>